<svg width="104" height="115" viewBox="0 0 104 115" fill="none" xmlns="http://www.w3.org/2000/svg">
<g clip-path="url(#clip0_85_213)">
<path d="M33.5574 100.902C34.2107 102.031 34.8537 103.087 35.4434 104.171C36.6045 106.308 36.0189 108.685 33.9363 109.938C31.3642 111.485 28.7594 112.978 26.1259 114.421C23.9798 115.597 21.6064 114.943 20.3716 112.826C13.7735 101.507 7.19597 90.1765 0.636841 78.8357C-0.636896 76.6347 0.0450243 74.2361 2.25256 72.9319C4.74065 71.4626 7.24512 70.0218 9.76597 68.6095C12.0042 67.3562 14.3694 67.9961 15.7108 70.1746C16.3558 71.2242 16.962 72.2981 17.648 73.4638C19.2043 72.5712 20.7238 71.701 22.2453 70.8308C24.1027 69.7691 25.9703 68.7257 27.8031 67.6252C28.0918 67.452 28.4072 67.0281 28.4092 66.7184C28.444 61.3302 28.4338 55.94 28.4256 50.5518C28.4256 50.4153 28.3642 50.2767 28.3232 50.0994C27.7703 50.1809 27.2604 50.2971 26.7464 50.3236C24.3341 50.4499 22.2515 49.0295 21.5634 46.8143C20.8569 44.538 21.7702 42.1394 23.902 40.933C25.9252 39.7877 27.9874 38.7076 30.0598 37.65C30.6823 37.3321 30.9014 36.9428 30.8891 36.254C30.8482 33.9349 30.8584 31.6137 30.8789 29.2946C30.9014 26.843 32.1117 25.659 34.5752 25.6407C35.7793 25.6325 36.9834 25.6101 38.1855 25.6488C40.1862 25.7141 41.3923 26.9266 41.4579 28.9034C41.4845 29.7104 41.462 30.5194 41.462 31.5322C43.5671 30.4134 45.4757 29.3986 47.3842 28.3837C48.1132 27.9965 48.8341 27.593 49.5713 27.2201C51.2812 26.356 52.9809 26.5924 54.7543 27.4361V25.9729C54.7543 18.826 54.7543 11.6771 54.7543 4.53022C54.7543 1.44079 56.2082 0 59.3127 0C71.4234 0 83.5342 0 95.6429 0C98.8067 0 100.232 1.42856 100.232 4.61174C100.232 24.259 100.238 43.9063 100.218 63.5515C100.218 64.4033 100.435 64.9515 101.145 65.512C105.147 68.6686 104.905 74.8027 100.625 77.7617C95.2538 81.4747 89.8087 85.0797 84.3942 88.7296C77.9846 93.052 71.5422 97.3274 65.1776 101.711C61.3318 104.358 57.3632 104.902 53.028 103.099C49.8764 101.788 46.6388 100.68 43.5077 99.3246C39.8421 97.7391 36.6414 98.5176 33.5554 100.898L33.5574 100.902ZM31.6878 97.6841C32.2161 97.3865 32.6502 97.1726 33.0557 96.9117C36.7909 94.5131 40.6674 94.2543 44.763 95.9763C47.9781 97.3295 51.2791 98.4748 54.5003 99.8116C57.5127 101.061 60.2424 100.712 62.9148 98.8824C68.364 95.1489 73.8624 91.4909 79.3403 87.8003C85.5963 83.586 91.8503 79.3675 98.1125 75.1634C99.2511 74.3992 100.128 73.4719 100.308 72.0617C100.529 70.3458 99.9474 68.9438 98.475 68.0084C96.9698 67.0526 95.3992 67.0811 93.9104 68.0593C87.2284 72.4448 80.5526 76.8426 73.8992 81.2709C73.5245 81.5216 73.2501 82.0555 73.117 82.512C71.9436 86.5776 68.1531 88.9313 63.9878 88.1101C59.6403 87.2521 55.299 86.3738 50.9556 85.4955C48.232 84.9452 45.5084 84.3971 42.793 83.8101C41.6319 83.5595 41.0258 82.7076 41.2039 81.7356C41.3923 80.6983 42.3261 80.1216 43.5016 80.3152C43.7985 80.3641 44.0954 80.413 44.3903 80.4741C51.1235 81.8415 57.8567 83.2191 64.5919 84.5764C67.3381 85.1307 69.7934 83.1804 69.736 80.5251C69.691 78.3812 68.2575 76.9078 65.7162 76.3963C55.5202 74.3421 45.32 72.3042 35.1281 70.2235C32.8386 69.7569 30.7417 70.0483 28.7389 71.2547C26.9389 72.3389 25.0979 73.3517 23.2754 74.3992C22.0139 75.1247 20.7566 75.8542 19.4521 76.6103C23.5436 83.6614 27.5799 90.6146 31.6837 97.6861L31.6878 97.6841ZM58.5284 3.63355C58.4588 3.83938 58.3932 3.94331 58.3932 4.04724C58.385 12.319 58.3789 20.5888 58.3871 28.8606C58.3871 29.0949 58.4731 29.4536 58.6349 29.5453C60.2199 30.4297 61.8315 31.2693 63.5803 32.2006C63.5803 29.9957 63.5598 28.0148 63.5865 26.034C63.6131 24.098 64.5899 23.1382 66.5148 23.1259C68.5463 23.1137 70.5777 23.1117 72.6091 23.1259C74.4665 23.1402 75.4535 24.1225 75.4719 25.9729C75.4904 27.807 75.476 29.6411 75.476 31.4752C75.476 34.1326 74.659 34.9375 71.9641 34.9436C71.0651 34.9457 70.164 34.9436 69.265 34.9436C69.2569 35.0394 69.2507 35.1372 69.2425 35.233C72.7033 37.0814 76.1641 38.9318 79.6638 40.8005C80.3908 39.5554 81.4454 39.2151 82.7601 39.2619C84.6768 39.3292 86.5956 39.2701 88.5144 39.2823C90.4128 39.2925 91.3568 40.1953 91.3896 42.1007C91.4264 44.159 91.4285 46.2172 91.3875 48.2755C91.3507 50.1157 90.4189 51.0246 88.5759 51.0491C86.5076 51.0776 84.4332 51.1326 82.371 51.0165C81.6154 50.9737 80.8864 50.4764 80.1471 50.1789C79.9259 50.0892 79.7007 49.8752 79.4959 49.8956C78.1484 50.0362 76.8071 50.2258 75.4003 50.4092V56.211C78.4269 56.211 81.3553 56.1988 84.2857 56.2151C86.698 56.2273 88.0394 57.5744 88.0619 59.9893C88.0783 61.6359 88.066 63.2825 88.066 64.9291C88.066 65.73 88.066 66.5289 88.066 67.4989C90.9227 65.9358 93.1241 63.4965 96.4907 63.741V3.63355H58.5243H58.5284ZM71.6139 75.6749C71.6569 75.2979 71.6876 75.1532 71.6876 75.0085C71.6897 66.2904 71.6815 57.5723 71.7081 48.8543C71.7081 48.1736 71.4193 47.874 70.8685 47.5826C64.8029 44.3668 58.7434 41.1388 52.7003 37.8782C52.088 37.5481 51.658 37.5725 51.0641 37.8925C45.0518 41.1266 39.0292 44.3444 32.9881 47.5256C32.2898 47.8924 32.0379 48.3 32.042 49.0784C32.0748 54.4666 32.0584 59.8548 32.0625 65.243C32.0625 65.5996 32.1117 65.9562 32.1219 66.0989C35.9472 66.7897 39.6087 67.45 43.3828 68.1306C43.3828 67.5641 43.3828 67.1565 43.3828 66.751C43.3828 63.3844 43.3746 60.0158 43.3869 56.6492C43.393 55.1208 43.9726 54.4666 45.4552 54.4564C49.7412 54.4258 54.0293 54.4258 58.3154 54.4564C59.7878 54.4666 60.3755 55.1391 60.3796 56.6614C60.3898 60.028 60.3837 63.3966 60.3837 66.7632C60.3837 68.3691 60.3837 69.9729 60.3837 71.5421C64.1435 72.881 68.5237 72.2186 71.6159 75.6769L71.6139 75.6749ZM12.1046 71.4931C11.6643 71.7132 11.3919 71.8314 11.1339 71.9782C8.92227 73.2437 6.72907 74.5459 4.49286 75.7707C3.60821 76.2557 3.5693 76.7346 4.04644 77.5559C10.4274 88.5095 16.79 99.4754 23.132 110.451C23.6276 111.311 24.0576 111.54 24.9771 110.977C27.0863 109.685 29.2611 108.501 31.4031 107.266C32.6031 106.575 32.6236 106.494 31.9151 105.275C28.7819 99.8728 25.6447 94.4724 22.5095 89.072C19.319 83.5737 16.1306 78.0735 12.9298 72.5793C12.7046 72.1921 12.3831 71.8579 12.1025 71.4931H12.1046ZM51.9242 33.5253C52.4833 33.778 53.0034 33.9797 53.4908 34.2406C60.9366 38.2083 68.3804 42.1822 75.8242 46.1561C76.1559 46.3334 76.4754 46.5515 76.8296 46.6574C77.6017 46.8877 78.257 46.69 78.6338 45.936C78.986 45.2309 78.7689 44.6216 78.1792 44.1467C77.9477 43.9613 77.6693 43.8329 77.4051 43.6903C69.3674 39.3964 61.3216 35.1169 53.2983 30.7965C52.2969 30.2565 51.4737 30.2565 50.4641 30.8006C42.4449 35.125 34.3991 39.4046 26.3614 43.6984C26.0972 43.839 25.8126 43.9593 25.5812 44.1447C24.9976 44.6175 24.7559 45.2085 25.1163 45.9279C25.4972 46.688 26.1484 46.8775 26.9184 46.6595C27.2727 46.5596 27.5942 46.3395 27.9259 46.1643C35.3697 42.1924 42.8135 38.2165 50.2614 34.2528C50.7795 33.9777 51.3406 33.78 51.9242 33.5294V33.5253ZM75.3798 59.8874V75.7972C75.5621 75.7442 75.6788 75.736 75.7648 75.681C78.4884 73.8938 81.2201 72.1188 83.913 70.2888C84.2058 70.0891 84.4168 69.5674 84.427 69.1883C84.4782 67.3236 84.4516 65.4549 84.4516 63.5882C84.4516 62.3716 84.4516 61.1549 84.4516 59.8874H75.3818H75.3798ZM47.0504 68.9539C50.2696 69.604 53.456 70.248 56.712 70.9062V58.147H47.0504V68.9539ZM71.8064 26.7839H67.2828V31.2571H71.8064V26.7839ZM87.6871 47.4074V42.9383H83.2229V47.4074H87.6871ZM34.5731 35.2086C35.6236 34.6502 36.4878 34.208 37.3315 33.7291C37.5363 33.6129 37.8066 33.3765 37.8128 33.187C37.8558 31.899 37.8353 30.6091 37.8353 29.2987H34.5752V35.2086H34.5731Z" fill="#696969"/>
<path d="M85.5124 6.9797C86.565 6.9797 87.6175 6.95932 88.6681 6.98378C90.3043 7.0225 91.322 7.91917 91.3691 9.52299C91.4367 11.7647 91.4346 14.0104 91.3691 16.2501C91.3261 17.8009 90.3473 18.7567 88.7868 18.7954C86.5711 18.8504 84.3533 18.8545 82.1376 18.7933C80.4871 18.7485 79.5492 17.7071 79.5348 16.034C79.5164 13.9411 79.5144 11.8462 79.5348 9.75327C79.5512 7.99457 80.5608 7.01027 82.3547 6.9797C83.4072 6.96136 84.4578 6.97563 85.5103 6.97767L85.5124 6.9797ZM83.2066 15.1455H87.6892V10.6397H83.2066V15.1455Z" fill="#696969"/>
<path d="M79.5369 29.0134C79.5369 27.8926 79.5062 26.7697 79.5451 25.6488C79.5942 24.1897 80.5813 23.1708 82.0393 23.1443C84.3308 23.1015 86.6223 23.1015 88.9138 23.1443C90.2817 23.1708 91.2974 24.0797 91.3445 25.4552C91.4265 27.8436 91.4244 30.2382 91.3404 32.6266C91.2933 33.9655 90.3698 34.8519 88.9998 34.8947C86.6366 34.9681 84.2673 34.9742 81.9041 34.8866C80.4686 34.8336 79.6126 33.8106 79.541 32.3759C79.5369 32.3005 79.5369 32.2271 79.5369 32.1517C79.5369 31.1043 79.5369 30.0588 79.5369 29.0114H79.541L79.5369 29.0134ZM83.2106 26.7839V31.2449H87.7056V26.7839H83.2106Z" fill="#696969"/>
<path d="M69.5845 6.97978C70.6371 6.97978 71.6897 6.9594 72.7402 6.98589C74.3989 7.02868 75.4351 8.01298 75.4617 9.63718C75.4986 11.8055 75.4966 13.9738 75.4617 16.1421C75.4372 17.7276 74.4583 18.7526 72.8569 18.7975C70.6412 18.8566 68.4234 18.8566 66.2077 18.7995C64.6063 18.7588 63.6336 17.7683 63.5947 16.1503C63.5414 13.984 63.5394 11.8136 63.5947 9.64533C63.6397 7.93962 64.678 7.01034 66.4268 6.98385C67.4794 6.96755 68.5299 6.98181 69.5825 6.98181L69.5845 6.97978ZM67.2029 10.6357C67.2029 12.0276 67.1763 13.3258 67.2316 14.6198C67.2398 14.8236 67.6125 15.1741 67.8275 15.1823C69.1279 15.2353 70.4303 15.2088 71.7921 15.2088V10.6337H67.2029V10.6357Z" fill="#696969"/>
</g>
<defs>
<clipPath id="clip0_85_213">
<rect width="104" height="115" fill="white"/>
</clipPath>
</defs>
</svg>
