<svg width="64" height="64" viewBox="0 0 64 64" fill="none" xmlns="http://www.w3.org/2000/svg">
<g clip-path="url(#clip0_89_443)">
<path d="M44.222 18.3683C45.6363 16.954 47.0181 15.5697 48.495 14.0928C47.5638 13.3543 46.6451 12.5508 45.6538 11.8524C30.0962 0.928316 8.6536 8.18767 3.12648 26.3361C0.162659 36.0661 2.26036 44.9225 8.78878 52.7226C8.8814 52.8352 8.98653 52.9379 9.07164 53.0555C9.41709 53.5236 9.37704 54.0618 8.97902 54.3972C8.5735 54.7377 8.0303 54.7177 7.64981 54.2596C6.79871 53.2357 5.92008 52.2244 5.17412 51.1255C1.28911 45.3906 -0.448128 39.0525 0.0975754 32.1436C1.06132 19.9929 9.04661 9.80226 20.6766 6.24016C30.6419 3.18623 39.8413 5.00107 48.117 11.3668C48.2647 11.4819 48.4073 11.6021 48.5575 11.7147C48.5851 11.7347 48.6351 11.7222 48.7228 11.7297C48.6602 10.7735 48.6276 9.82228 48.53 8.87606C48.4299 7.91482 48.7002 7.13882 49.3961 6.45294C51.3587 4.52545 53.2936 2.57544 55.2311 0.622923C55.7018 0.149813 56.1999 -0.168097 56.8958 0.0872321C57.6142 0.350071 57.8145 0.928316 57.8495 1.61921C57.8996 2.57043 57.9622 3.51916 58.0272 4.61807C58.6405 4.00979 59.1637 3.49412 59.6869 2.97596C59.8496 2.81575 60.0048 2.64553 60.175 2.49283C60.6131 2.10233 61.1488 2.08981 61.5192 2.45528C61.8897 2.81825 61.9022 3.37647 61.5067 3.79952C60.9786 4.36024 60.4203 4.89343 59.8771 5.43913C59.737 5.57931 59.6093 5.73201 59.399 5.9598C60.4579 6.02489 61.4066 6.06243 62.3503 6.15005C62.7108 6.18509 63.1113 6.26019 63.4092 6.45044C64.1426 6.91854 64.2052 7.89229 63.5444 8.56066C61.4642 10.6634 59.369 12.7511 57.2713 14.8362C56.7356 15.3694 56.0597 15.5296 55.3163 15.4721C54.2999 15.392 53.2836 15.3319 52.1522 15.2568C52.3274 15.4921 52.4426 15.6548 52.5652 15.8075C57.3714 21.8328 59.5467 28.7091 59.0861 36.3865C58.2876 49.6912 48.3047 61.0308 35.2078 63.4489C26.419 65.0735 18.4387 63.0985 11.3195 57.684C10.5936 57.1308 10.4334 56.6326 10.8114 56.127C11.1944 55.6163 11.7351 55.6263 12.4435 56.1795C16.0356 58.9857 20.0608 60.8556 24.5541 61.6341C33.1477 63.1235 40.8476 61.0784 47.5137 55.4686C52.7329 51.078 55.9245 45.4307 56.9183 38.6845C58.1925 30.0308 55.892 22.3609 50.087 15.7775C50.0069 15.6873 49.9068 15.6122 49.8717 15.5772C48.4574 16.989 47.0581 18.3858 45.6938 19.7476C46.5324 20.9441 47.4611 22.1231 48.2321 23.3948C50.1721 26.5914 51.1684 30.0809 51.256 33.8232C51.2785 34.7644 50.9682 35.235 50.3348 35.2325C49.709 35.23 49.4061 34.7719 49.3736 33.8207C49.2234 29.1297 47.5863 25.0169 44.5424 21.4548C44.4497 21.3471 44.3471 21.247 44.282 21.1794C42.8827 22.5837 41.5034 23.963 40.0791 25.3899C42.9478 28.8894 44.0467 32.9546 43.0429 37.493C42.2845 40.9274 40.4045 43.6684 37.5408 45.706C31.9161 49.7112 24.1386 48.9002 19.455 43.8411C14.7139 38.7145 14.5036 30.9746 18.8918 25.6126C23.4852 20.0004 32.4768 18.5686 38.6523 23.9205C40.0366 22.5362 41.4183 21.1544 42.9228 19.6525C41.7688 18.8514 40.6649 17.9653 39.4533 17.2619C27.6731 10.413 12.5687 17.372 10.0905 30.7668C8.07286 41.6783 15.3397 52.1243 26.2313 53.9692C36.5446 55.7164 46.5274 49.0654 48.8755 38.8873C48.898 38.7871 48.9305 38.687 48.9581 38.5869C49.1408 37.9135 49.5438 37.6181 50.1145 37.7383C50.6603 37.8534 50.9181 38.3415 50.7779 39.0049C50.3223 41.1602 49.5889 43.2203 48.4474 45.0978C43.9216 52.5449 37.2805 56.3297 28.5618 56.0769C18.271 55.7815 9.48718 47.7111 8.09288 37.523C6.52586 26.0707 13.9079 15.452 25.1649 13.1741C32.0012 11.7898 38.1666 13.4219 43.5661 17.8601C43.7438 18.0053 43.9141 18.158 44.0893 18.3057C44.1193 18.3307 44.1619 18.3408 44.2119 18.3658L44.222 18.3683ZM34.4869 30.9796C36.1766 34.4365 35.6809 37.3378 33.0375 39.2577C30.7346 40.9299 27.5555 40.7071 25.4628 38.7295C23.3726 36.7545 23.0071 33.5454 24.6067 31.1348C25.4077 29.9282 26.5066 29.1046 27.9034 28.7066C29.7558 28.1784 31.478 28.5164 32.9674 29.5001C34.4168 28.0608 35.8161 26.6715 37.2129 25.2847C33.1527 21.605 25.8082 21.1819 21.0195 26.0782C16.326 30.8794 16.5112 38.5168 21.4251 43.1527C26.2037 47.6611 33.8561 47.3857 38.3193 42.5545C42.9779 37.513 42.0717 30.3663 38.6798 26.7816C37.288 28.1759 35.8937 29.5702 34.4869 30.9821V30.9796ZM31.6883 30.9821C30.0236 29.8781 27.7282 30.2611 26.449 31.7981C25.0873 33.4352 25.1899 35.7958 26.6894 37.2977C28.1713 38.7821 30.5043 38.9048 32.1389 37.5856C33.7159 36.3114 34.1189 34.011 33.0075 32.3063C32.194 33.1223 31.3904 33.9284 30.5869 34.7344C29.886 35.4353 29.4054 35.5404 28.9347 35.1024C28.4441 34.6443 28.5442 34.1236 29.2602 33.4077C30.0662 32.6042 30.8722 31.8006 31.6883 30.9871V30.9821ZM50.6302 11.9425C50.7504 11.8699 50.8079 11.8499 50.848 11.8098C52.5702 10.0901 54.2949 8.37041 56.0121 6.64318C56.1098 6.54556 56.2324 6.40538 56.2274 6.29023C56.1699 5.08367 56.0898 3.87712 56.0071 2.51536C54.1172 4.4078 52.3499 6.16507 50.6027 7.94236C50.465 8.08004 50.3974 8.35289 50.4074 8.55815C50.46 9.65957 50.5476 10.7585 50.6277 11.9375L50.6302 11.9425ZM51.9644 13.3568C53.1535 13.4369 54.1923 13.487 55.2261 13.5871C55.6642 13.6297 55.9696 13.5045 56.2725 13.1941C57.8495 11.5921 59.4466 10.01 61.0336 8.42048C61.1438 8.30783 61.2389 8.18016 61.4091 7.97991C60.5881 7.92984 59.8496 7.96989 59.1487 7.82471C58.0298 7.59191 57.2563 7.94486 56.4928 8.78595C55.0835 10.3354 53.549 11.7723 51.9644 13.3568Z" fill="#1C293E"/>
</g>
<defs>
<clipPath id="clip0_89_443">
<rect width="64" height="64" fill="white"/>
</clipPath>
</defs>
</svg>
