<svg width="109" height="119" viewBox="0 0 109 119" fill="none" xmlns="http://www.w3.org/2000/svg">
<g clip-path="url(#clip0_85_218)">
<path d="M85.6879 55.2929C85.9039 54.9459 86.1299 54.604 86.3335 54.2495C89.3726 48.9554 92.4067 43.6587 95.4482 38.3671C97.4321 34.92 100.506 34.1088 103.965 36.1081C104.633 36.4925 105.303 36.8694 105.963 37.2688C109.02 39.1159 109.854 42.2335 108.076 45.3485C104.687 51.2892 101.271 57.2124 97.8641 63.1405C93.9188 70.0097 89.9635 76.8714 86.0529 83.758C85.7127 84.3596 85.5141 85.1284 85.5116 85.8223C85.4769 96.2034 85.4893 106.585 85.4868 116.963C85.4868 118.718 85.2112 118.998 83.4955 118.998C56.3423 118.998 29.1892 118.998 2.03599 118.998C0.325262 118.998 0 118.681 0 116.986C0 78.6785 0 40.3714 0 2.06425C0 0.294536 0.302916 0 2.09806 0C29.214 0 56.3274 0 83.4434 0C85.2335 0 85.4893 0.262087 85.4893 2.0967C85.4893 19.4494 85.4893 36.802 85.4893 54.1547C85.4893 54.5016 85.4893 54.8511 85.4893 55.198C85.5563 55.2305 85.6233 55.2604 85.6904 55.2929H85.6879ZM82.8897 116.424V89.2194C80.444 93.4827 78.1647 97.4714 75.8556 101.445C75.6172 101.857 75.2646 102.266 74.8624 102.506C71.7265 104.391 68.5781 106.26 65.395 108.062C64.8587 108.364 64.0021 108.581 63.5254 108.349C63.1306 108.16 62.9121 107.251 62.9072 106.659C62.8798 102.943 62.9245 99.2262 62.9767 95.5095C62.9816 95.1077 63.1207 94.6658 63.3218 94.3164C69.6805 83.2239 76.0641 72.1438 82.4055 61.0413C82.768 60.4073 82.989 59.5961 82.989 58.8647C83.0212 40.5087 83.0138 22.1526 83.0113 3.79652C83.0113 3.38966 82.9716 2.9828 82.9517 2.58593H2.55989V116.422H82.8897V116.424ZM85.7301 60.285C82.2441 66.3505 78.8102 72.331 75.3242 78.3965C78.0927 80.0014 80.7717 81.554 83.5203 83.1465C87.0113 77.0636 90.4427 71.083 93.9088 65.04C91.1379 63.4301 88.4861 61.8875 85.7301 60.285ZM103.332 48.6334C100.571 47.0309 97.8914 45.4758 95.1404 43.8809C92.3893 48.6733 89.6953 53.3709 86.9641 58.1309C89.7425 59.7409 92.3918 61.276 95.1528 62.8759C97.8939 58.1035 100.59 53.4084 103.332 48.6359V48.6334ZM65.909 94.8006C68.7122 96.4256 71.364 97.9631 74.1001 99.5506C76.8388 94.7807 79.5352 90.0831 82.2739 85.3106C79.503 83.7006 76.8264 82.1456 74.0877 80.5556C71.3416 85.338 68.6601 90.0107 65.909 94.8006ZM104.588 46.4893C105.42 44.5972 107.48 43.0072 106.07 40.8232C104.829 38.9012 102.733 37.6856 100.479 37.5783C97.9336 37.4585 97.5488 40.0244 96.3818 41.7243C99.123 43.3167 101.782 44.8593 104.59 46.4917L104.588 46.4893ZM65.4521 105.182C67.7017 103.854 69.827 102.601 72.089 101.265C69.8196 99.9475 67.7116 98.7244 65.4521 97.4115V105.182Z" fill="#696969"/>
<path d="M20.9806 36.8744C19.8385 36.8744 18.7733 37.0616 17.8075 36.832C16.1787 36.4476 15.188 35.252 14.8702 33.5896C14.5598 31.9622 15.1135 30.5968 16.3699 29.5609C20.3003 26.321 24.2531 23.1086 28.1985 19.8837C31.9924 16.7811 35.7838 13.676 39.5851 10.5808C41.9091 8.68882 43.672 8.71628 45.996 10.6158C53.6434 16.8709 61.3007 23.1111 68.9431 29.3712C71.3019 31.3032 71.3118 34.5331 68.9978 36.2354C67.9127 37.0317 67.1331 37.1315 64.5434 36.7496V38.11C64.5434 45.9326 64.5434 53.7578 64.5434 61.5805C64.5434 63.5823 64.3423 63.7845 62.3659 63.7895C54.6639 63.812 46.9619 63.8494 39.2624 63.8519C33.8347 63.8519 28.407 63.8145 22.9819 63.787C21.2389 63.7795 20.9881 63.5224 20.9881 61.7552C20.9881 53.8552 20.9881 45.9526 20.9881 38.0526C20.9881 37.6282 20.9881 37.2039 20.9881 36.8719L20.9806 36.8744ZM26.9595 61.261C26.9595 60.6894 26.9595 60.2651 26.9595 59.8407C26.9595 55.1157 26.9595 50.3906 26.9595 45.6631C26.9595 43.8185 27.1656 43.6138 29.0377 43.6113C32.196 43.6063 35.3542 43.6063 38.5125 43.6113C40.2257 43.6138 40.4715 43.8584 40.474 45.5532C40.479 50.3557 40.474 55.1581 40.474 59.963C40.474 60.3774 40.474 60.7892 40.474 61.2235H62.0381C62.0605 60.934 62.0878 60.7418 62.0878 60.5521C62.0878 52.1853 62.1052 43.8185 62.0555 35.4517C62.053 34.9449 61.6533 34.3035 61.2411 33.959C58.3162 31.5004 55.3417 29.1017 52.3821 26.6855C49.1915 24.0796 45.9985 21.4737 42.7906 18.8528C42.4877 19.0824 42.2369 19.2597 42.001 19.4519C36.1115 24.2593 30.232 29.0817 24.3251 33.8642C23.6895 34.3783 23.4387 34.9 23.4412 35.7162C23.4685 43.811 23.4561 51.9082 23.4611 60.003C23.4611 60.4123 23.5033 60.8217 23.5256 61.2635H26.9595V61.261ZM68.5161 32.7784C68.0071 32.1469 67.6868 31.5753 67.2125 31.1884C59.5801 24.9207 51.9302 18.6756 44.2828 12.4304C43.0364 11.412 42.5001 11.407 41.2487 12.4304C36.4964 16.3068 31.749 20.1907 26.9992 24.0696C24.0421 26.4858 21.0899 28.907 18.1253 31.3157C17.4251 31.8848 16.9881 32.6186 17.4276 33.4273C17.6957 33.9216 18.3636 34.4158 18.9024 34.4832C19.409 34.5456 20.062 34.1412 20.5139 33.7743C27.4313 28.1606 34.3263 22.517 41.2288 16.8809C42.7012 15.6778 42.8328 15.6778 44.2729 16.856C49.77 21.3464 55.2647 25.8393 60.7619 30.3322C62.3137 31.6002 63.8258 32.9306 65.4521 34.0938C65.914 34.4233 66.788 34.4632 67.3441 34.266C67.7985 34.1063 68.0592 33.3949 68.5136 32.7834L68.5161 32.7784ZM37.9762 46.1847H29.4797V61.2535H37.9762V46.1847Z" fill="#696969"/>
<path d="M42.8154 69.2484C51.3194 69.2484 59.8258 69.2484 68.3298 69.2484C68.7147 69.2484 69.1914 69.1336 69.4596 69.3158C69.8568 69.5854 70.3112 70.0546 70.3559 70.4815C70.3931 70.8284 69.9412 71.3501 69.5738 71.5872C69.2584 71.7919 68.7594 71.7395 68.3398 71.7395C51.2921 71.7445 34.2444 71.7445 17.1967 71.742C16.8515 71.742 16.3997 71.8393 16.1836 71.6621C15.764 71.3152 15.2327 70.8184 15.2103 70.3617C15.193 70.0122 15.841 69.5554 16.2805 69.2858C16.5337 69.1311 16.9558 69.2484 17.3034 69.2484C25.8074 69.2484 34.3139 69.2484 42.8179 69.2484H42.8154Z" fill="#696969"/>
<path d="M42.7186 80.4508C34.2071 80.4508 25.6957 80.4508 17.1843 80.4508C16.7994 80.4508 16.3376 80.5556 16.0496 80.3809C15.6722 80.1512 15.188 79.6895 15.1955 79.335C15.2029 78.9132 15.6002 78.3865 15.9776 78.1169C16.273 77.9073 16.7945 77.9921 17.2166 77.9896C34.2394 77.9847 51.2623 77.9847 68.2852 77.9847C68.4788 77.9847 68.67 77.9847 68.8637 77.9872C69.7451 77.9921 70.4453 78.3141 70.3956 79.3026C70.3485 80.2062 69.6731 80.4583 68.8314 80.4558C64.1337 80.4408 59.4336 80.4483 54.7359 80.4483C50.7309 80.4483 46.726 80.4483 42.7211 80.4483L42.7186 80.4508Z" fill="#696969"/>
<path d="M43.1531 95.4995C47.4659 95.4995 51.7763 95.4995 56.0891 95.4995C56.4342 95.4995 56.8662 95.3897 57.1096 95.5544C57.5118 95.8265 58.0382 96.2658 58.0605 96.6602C58.0829 97.052 57.6235 97.5837 57.2362 97.8508C56.9333 98.0579 56.4193 97.9806 55.9997 97.9806C47.3765 97.9856 38.7509 97.9856 30.1277 97.9831C28.6603 97.9831 28.0445 97.6087 28.0346 96.7375C28.0272 95.8614 28.628 95.4995 30.1029 95.4995C34.453 95.4995 38.803 95.4995 43.1556 95.4995H43.1531Z" fill="#696969"/>
<path d="M26.7733 106.899C27.4759 106.048 28.2258 105.229 28.8713 104.338C30.2121 102.489 31.6795 102.528 32.7968 104.495C33.1022 105.032 33.3232 105.631 33.7056 106.105C34.0432 106.525 34.5051 106.907 34.9917 107.131C35.6696 107.446 36.1314 107.853 35.9625 108.619C35.7838 109.435 35.1159 109.839 34.3884 109.537C33.5367 109.183 32.7099 108.654 32.0271 108.032C31.5082 107.558 31.2301 106.817 30.8006 106.123C30.2618 106.717 29.7826 107.361 29.1916 107.868C28.4666 108.489 27.7044 109.121 26.8552 109.522C25.2363 110.286 24.0346 109.45 23.9626 107.678C23.9328 106.971 23.8087 106.268 23.6994 105.294C22.8478 105.738 22.2345 106.015 21.6609 106.362C20.4443 107.101 19.2625 107.903 18.0384 108.626C17.5815 108.896 17.0278 109.203 16.5461 109.161C16.0769 109.118 15.3891 108.739 15.265 108.352C15.1383 107.967 15.4512 107.176 15.8137 106.937C17.445 105.858 19.1607 104.907 20.8515 103.919C21.1817 103.724 21.5244 103.542 21.8794 103.397C24.0992 102.476 25.9018 103.469 26.3189 105.838C26.371 106.133 26.4132 106.432 26.4579 106.727C26.5647 106.784 26.6715 106.842 26.7782 106.899H26.7733Z" fill="#696969"/>
<path d="M28.6553 89.2345C24.8068 89.2345 20.9558 89.2345 17.1073 89.2345C16.7622 89.2345 16.3252 89.3318 16.0918 89.1621C15.702 88.875 15.2029 88.4157 15.193 88.0164C15.1805 87.617 15.6523 87.1303 16.0272 86.8233C16.2482 86.6435 16.6926 86.7209 17.0353 86.7209C24.8118 86.7159 32.5858 86.7184 40.3623 86.7184C40.5932 86.7184 40.8986 86.6336 41.0401 86.7484C41.4746 87.1053 42.0879 87.4872 42.1897 87.9565C42.3461 88.6878 41.7626 89.1646 41.0103 89.217C40.2828 89.2669 39.5479 89.2345 38.8179 89.2345C35.4312 89.2345 32.042 89.2345 28.6553 89.2345Z" fill="#696969"/>
<path d="M55.5056 89.2344C53.2759 89.2344 51.0438 89.2244 48.8141 89.2394C47.9426 89.2469 47.2027 88.9973 47.1754 88.0288C47.1456 86.983 47.9153 86.7134 48.8315 86.7134C53.2933 86.7209 57.7551 86.7209 62.2144 86.7134C63.1232 86.7134 63.9202 86.9505 63.9127 87.9889C63.9053 89.0297 63.1058 89.2494 62.197 89.2419C59.9674 89.2219 57.7352 89.2344 55.5056 89.2344Z" fill="#696969"/>
<path d="M20.7199 97.9831C19.4139 97.9831 18.1104 97.9831 16.8044 97.9831C15.9155 97.9831 15.1259 97.7784 15.1458 96.6901C15.1656 95.6742 15.9031 95.4895 16.7622 95.4945C19.4114 95.5095 22.0582 95.5095 24.7075 95.4945C25.5691 95.4895 26.2891 95.6942 26.309 96.7076C26.3288 97.7285 25.5989 97.9731 24.7472 97.9781C23.404 97.9881 22.0607 97.9781 20.7174 97.9806L20.7199 97.9831Z" fill="#696969"/>
<path d="M50.9221 57.1973C49.0376 57.1973 47.1506 57.2048 45.266 57.1948C43.9377 57.1873 43.5926 56.8678 43.5876 55.5699C43.5727 52.1253 43.5727 48.6832 43.5876 45.2387C43.5926 43.9657 43.9104 43.6412 45.1593 43.6362C49.0823 43.6237 53.0078 43.6237 56.9308 43.6362C58.1971 43.6387 58.577 44.0156 58.5819 45.3086C58.5993 48.7132 58.5993 52.1178 58.5819 55.5225C58.5745 56.8054 58.1797 57.1848 56.9208 57.1923C54.9196 57.2048 52.9209 57.1948 50.9196 57.1948L50.9221 57.1973ZM46.0308 54.6339H56.027V46.0873C52.8389 46.0873 49.7353 46.0773 46.6316 46.1098C46.4305 46.1098 46.0581 46.4343 46.0556 46.6115C46.0184 49.2648 46.0308 51.9206 46.0308 54.6339Z" fill="#696969"/>
</g>
<defs>
<clipPath id="clip0_85_218">
<rect width="109" height="119" fill="white"/>
</clipPath>
</defs>
</svg>
