<svg width="66" height="69" viewBox="0 0 66 69" fill="none" xmlns="http://www.w3.org/2000/svg">
<g clip-path="url(#clip0_89_445)">
<path d="M0 34.7695C0.227034 34.5242 0.443383 34.2682 0.67843 34.031C5.27252 29.3924 9.86661 24.7564 14.4634 20.1205C15.6894 18.886 16.8138 18.886 18.0452 20.1259C19.6985 21.7916 21.3518 23.4573 23.0025 25.1284C24.151 26.2927 24.151 27.4787 22.9945 28.6431C22.666 28.9746 22.2974 29.2657 21.8941 29.6242C22.4656 30.1875 22.909 30.6834 23.4138 31.1066C23.94 31.5486 24.5784 31.6106 25.2461 31.4624C26.8781 31.0985 28.5288 30.6888 30.1901 31.1416C31.1009 31.3896 31.8755 31.3006 32.7409 30.961C34.3622 30.3249 36.0503 30.3815 37.7303 30.7885C38.6384 31.0068 39.5546 31.1874 40.4601 31.4165C41.3495 31.6402 42.0733 31.3842 42.709 30.7535C43.0402 30.4247 43.4008 30.1228 43.935 29.643C43.4088 29.2037 42.9548 28.8802 42.5675 28.4867C41.5979 27.5056 41.6032 26.2496 42.5701 25.2685C44.325 23.4815 46.0851 21.7026 47.856 19.9318C48.8363 18.9534 50.0703 18.9453 51.0558 19.9372C55.7995 24.7106 60.5352 29.4894 65.2655 34.2763C66.2404 35.2627 66.2431 36.5026 65.2655 37.5025C63.516 39.2949 61.7531 41.0711 59.9796 42.8366C58.986 43.8258 57.776 43.815 56.7824 42.842C56.4005 42.4673 56.0319 42.0765 55.7301 41.7638C54.9074 42.5266 54.0554 43.2139 53.3422 44.0279C53.0618 44.3486 52.979 44.947 52.995 45.4133C53.0805 47.7609 52.8935 48.6045 51.6595 50.626C53.1259 52.1031 53.6681 53.8442 52.6878 55.7956C51.7957 57.5745 50.2225 58.2214 48.2887 58.0516C47.9922 59.2915 47.621 60.4585 46.5446 61.224C45.4868 61.9733 44.2983 61.9679 43.0963 61.79C42.2469 65.1376 39.3356 65.9785 37.0065 64.9031C36.5097 66.3801 35.5855 67.4744 34.0524 67.8922C32.5032 68.3154 31.157 67.8706 29.8269 66.6362C29.6265 66.9192 29.4529 67.2076 29.2366 67.4636C26.8888 70.2263 22.8075 69.0377 22.1291 65.5985C19.6184 65.8626 17.9517 64.8061 17.2679 62.3075C14.1028 62.9301 11.4959 60.1755 12.5456 56.8414C12.3934 56.7767 12.2358 56.7066 12.0782 56.642C9.43658 55.5638 8.68604 52.3214 10.6038 50.1948C11.2181 49.5156 11.8966 48.8956 12.5216 48.2245C12.6685 48.0682 12.7807 47.8121 12.7833 47.6019C12.7913 46.9119 12.6952 46.2165 12.7299 45.5292C12.7673 44.761 12.5777 44.1222 12.0328 43.5778C11.4024 42.9471 10.7934 42.2948 10.0856 41.559C9.66629 42.0253 9.32975 42.4404 8.95314 42.815C7.93282 43.8284 6.72287 43.8365 5.70789 42.8204C3.79547 40.9094 1.90174 38.9823 0 37.0605C0 36.2977 0 35.5323 0 34.7695ZM36.5257 38.4863C35.9194 38.9715 35.3611 39.454 34.7655 39.8825C34.4076 40.1413 34.3248 40.3731 34.445 40.8232C35.1795 43.5266 33.9188 46.2515 31.4188 47.4509C30.2703 48.0035 29.0897 47.6639 28.5047 46.5345C27.4657 44.5265 26.4321 42.5131 25.4705 40.4674C24.76 38.9553 25.0458 37.5241 26.1623 36.2951C26.8087 35.5835 27.5031 34.9177 28.1869 34.2412C28.5101 33.9178 28.8546 33.6159 29.1912 33.3059C29.1484 33.2143 29.103 33.1227 29.0603 33.031C27.9118 33.217 26.7579 33.3787 25.6147 33.597C24.0495 33.8962 22.7087 33.4946 21.5789 32.3734C21.2049 32.0014 20.8577 31.5998 20.5586 31.2764C17.559 34.3059 14.6557 37.2384 11.7176 40.2059C13.3496 41.8636 15.4703 43.346 14.7652 46.3189C16.0793 45.9227 17.2439 45.9254 18.355 46.5777C19.4581 47.2245 20.0404 48.2461 20.3208 49.4536C23.1815 48.9495 25.9539 51.3026 24.9737 54.9089C25.9807 55.2054 26.8113 55.766 27.3829 56.6797C27.9679 57.615 28.072 58.6419 27.9251 59.6931C30.6175 60.6149 31.3921 61.7954 31.2211 64.6309C31.2131 64.7683 31.2532 64.9408 31.3333 65.0513C31.8087 65.709 32.7035 66.0109 33.4728 65.7979C34.2847 65.5715 34.8483 64.9193 34.9338 64.0675C35.0032 63.3695 34.7148 62.8088 34.2313 62.3237C33.0775 61.1701 31.9236 60.0138 30.7884 58.8413C30.2889 58.3265 30.2916 57.6554 30.743 57.2268C31.1837 56.8064 31.782 56.8387 32.2975 57.3104C32.4444 57.4479 32.5833 57.5934 32.7249 57.7363C34.3141 59.34 35.8927 60.9545 37.4979 62.542C38.39 63.4261 39.616 63.4018 40.4066 62.542C41.1705 61.7091 41.0771 60.5097 40.1876 59.6796C38.4542 58.0651 36.7234 56.4452 34.9952 54.828C34.8483 54.6906 34.6934 54.5558 34.5786 54.3941C34.2447 53.9332 34.266 53.4561 34.64 53.041C35.038 52.599 35.5294 52.5613 36.0289 52.8739C36.1972 52.979 36.3361 53.1327 36.483 53.2701C38.5583 55.2054 40.6257 57.1514 42.7117 59.0758C43.9537 60.2213 45.5109 59.8494 45.9997 58.3023C46.2614 57.4748 46.0344 56.7633 45.4254 56.1541C44.0792 54.8118 42.7411 53.4642 41.4002 52.1165C40.9275 51.6422 40.436 51.1813 39.9926 50.6799C39.592 50.2271 39.6294 49.6234 40.0247 49.2191C40.4146 48.8202 41.0103 48.7905 41.475 49.1625C41.6299 49.2865 41.7688 49.4347 41.9104 49.5775C43.6973 51.3942 45.4655 53.2324 47.2791 55.0194C48.3929 56.1191 49.6162 56.1784 50.4656 55.2808C51.3256 54.3698 51.1814 53.2324 50.0596 52.1004C45.7166 47.7178 41.3735 43.3352 37.0278 38.9526C36.8729 38.7963 36.71 38.6508 36.531 38.4809L36.5257 38.4863ZM53.9619 40.2895C50.9704 37.2708 48.0563 34.3302 45.1049 31.3492C44.8672 31.6052 44.5654 31.9367 44.2555 32.2548C43.0295 33.5135 41.5658 33.9259 39.8644 33.5135C38.8922 33.279 37.9146 33.0688 36.9397 32.8504C34.6053 32.3275 32.5833 32.9286 30.8739 34.597C29.8669 35.5808 28.884 36.5888 27.8984 37.5942C27.1666 38.3408 27.0758 38.9041 27.5405 39.8394C28.4166 41.6021 29.306 43.3595 30.1928 45.1168C30.2596 45.2489 30.3504 45.3675 30.4973 45.602C30.9567 45.1977 31.4295 44.8877 31.766 44.4645C32.6955 43.2975 32.6848 42.0037 32.1426 40.6588C31.7713 39.7343 31.8515 39.4701 32.6047 38.861C33.593 38.0605 34.5866 37.2654 35.5802 36.4729C36.5284 35.7156 36.8649 35.7371 37.7357 36.6185C41.6673 40.586 45.599 44.5535 49.5307 48.521C49.699 48.6908 49.8753 48.8525 50.0836 49.0493C50.7941 48.0439 50.9837 46.9658 50.8555 45.8257C50.6792 44.257 51.1867 42.9633 52.3112 41.8905C52.9068 41.3218 53.4918 40.745 53.9619 40.2895ZM7.29178 41.2733C12.0728 36.4514 16.8379 31.6456 21.4987 26.9423C19.7493 25.1499 17.965 23.3198 16.2316 21.5436C11.4959 26.3224 6.73088 31.1308 1.98988 35.9177C3.74472 37.6912 5.53428 39.4971 7.29178 41.2733ZM58.3556 41.2302C60.1425 39.4324 61.9348 37.6346 63.7056 35.8557C58.9753 31.0877 54.2076 26.2847 49.5093 21.549C47.7278 23.3279 45.9195 25.1365 44.1514 26.9019C48.8843 31.678 53.6494 36.481 58.3556 41.2302ZM21.1355 51.4589C20.7348 51.6691 20.2541 51.8012 19.9442 52.1058C18.2669 53.7418 16.6002 55.3913 15.0083 57.1109C14.6664 57.4802 14.5034 58.1594 14.5141 58.6904C14.5301 59.4047 15.035 59.8979 15.7348 60.1243C16.4746 60.3642 17.097 60.1324 17.6231 59.6122C18.7316 58.5125 19.8267 57.3967 20.9245 56.2862C21.4747 55.7309 22.0383 55.1892 22.5618 54.6097C23.088 54.0221 23.1761 53.3213 22.8476 52.6071C22.5297 51.9144 21.9555 51.5748 21.1382 51.4589H21.1355ZM13.5365 54.8307C13.9105 54.6609 14.3592 54.572 14.645 54.3024C15.7161 53.2917 16.7631 52.254 17.754 51.1651C18.3977 50.4562 18.2936 49.3862 17.6338 48.7285C16.9821 48.079 15.8977 47.99 15.2113 48.6369C14.1375 49.6449 13.1038 50.6961 12.1022 51.7769C11.5867 52.3322 11.5547 53.0437 11.8859 53.7256C12.2064 54.386 12.7566 54.7202 13.5365 54.8307ZM25.8605 59.0597C25.799 58.022 25.4598 57.4479 24.76 57.1433C24.0388 56.8306 23.3524 56.9411 22.7835 57.491C21.838 58.4101 20.9058 59.3427 19.995 60.2941C19.2044 61.1189 19.2017 62.1943 19.9416 62.9382C20.6734 63.674 21.7605 63.6633 22.5645 62.8762C23.4753 61.9868 24.3861 61.0946 25.2408 60.154C25.5667 59.7955 25.7323 59.2915 25.8578 59.0597H25.8605ZM29.1591 63.6552C29.1484 63.0002 28.8413 62.4369 28.1869 62.0946C27.5085 61.7388 26.8274 61.7873 26.2558 62.2806C25.6815 62.7738 25.142 63.3156 24.6558 63.8951C24.1671 64.4772 24.143 65.1807 24.4822 65.8518C24.8134 66.5041 25.385 66.8356 26.1115 66.8302C27.212 66.8249 29.1458 64.8411 29.1591 63.6525V63.6552Z" fill="#1C293E"/>
<path d="M45.3186 12.4631C45.2865 19.3443 39.7683 24.875 32.9733 24.8454C26.1356 24.8131 20.6627 19.2284 20.6974 12.3203C20.7348 5.49575 26.3118 -0.0377256 33.1175 8.74518e-06C39.8644 0.0350478 45.3506 5.6413 45.3186 12.4631ZM36.133 15.0884V10.315H29.9123V15.0884H36.133ZM30.1554 8.0536H35.8686C35.5588 6.25313 35.1581 4.53083 34.1405 3.03763C33.3606 1.89212 32.6634 1.89751 31.8835 3.04571C30.8685 4.53892 30.4706 6.25852 30.1554 8.0536ZM42.9547 10.3123H38.3232V15.0749H42.8292C43.2485 13.4766 43.2806 11.9106 42.9574 10.3123H42.9547ZM27.7061 10.2665C26.2237 10.2665 24.7867 10.2557 23.3497 10.2826C23.2295 10.2826 23.0319 10.5144 23.0052 10.6627C22.7514 12.0238 22.7915 13.3876 23.1227 14.7326C23.1601 14.8808 23.3577 15.0938 23.4859 15.0965C24.8989 15.1234 26.3145 15.1126 27.7061 15.1126V10.2665ZM30.2569 17.3147C30.5774 19.0235 30.9941 20.638 32.0331 22.0045C32.7222 22.9102 33.3285 22.8967 34.0123 21.9857C35.0406 20.6111 35.4413 18.9912 35.7805 17.3174H30.2569V17.3147ZM27.845 8.06438C28.3445 6.28548 28.8226 4.58743 29.306 2.87052C26.8487 3.88934 25.0324 5.58739 23.8091 8.06438H27.845ZM42.1241 8.06708C41.5231 6.03751 38.4221 3.16161 36.7474 2.96755C37.2148 4.63325 37.6956 6.34208 38.179 8.06708H42.1241ZM29.2793 21.9722C28.8813 20.4844 28.5047 19.0478 28.1041 17.6166C28.0667 17.4845 27.8904 17.3012 27.7729 17.2985C26.5843 17.2743 25.3957 17.285 24.0602 17.285C25.3262 19.5491 27.049 21.0504 29.2766 21.9749L29.2793 21.9722ZM38.0855 17.3012C37.6128 18.8995 37.1614 20.4224 36.6966 21.9884C38.983 21.0558 40.7004 19.5249 41.9638 17.3012H38.0855Z" fill="#1C293E"/>
</g>
<defs>
<clipPath id="clip0_89_445">
<rect width="66" height="69" fill="white"/>
</clipPath>
</defs>
</svg>
