<svg width="99" height="99" viewBox="0 0 99 99" fill="none" xmlns="http://www.w3.org/2000/svg">
<g clip-path="url(#clip0_14_16)">
<path d="M0 96.874C0.545049 96.0862 1.29417 95.8434 2.24219 95.8899C3.52086 95.9544 4.8047 95.9054 6.18669 95.9054V94.5957C6.18669 63.9851 6.18669 33.3746 6.18669 2.76658C6.18669 2.54184 6.18669 2.31452 6.18669 2.08978C6.19444 0.501135 6.68266 0 8.25323 0C14.9876 0 21.7219 0 28.4562 0C40.8296 0 53.203 0 65.5738 0C67.6997 0 68.0614 0.356478 68.0614 2.44368C68.0614 13.076 68.0614 23.7083 68.0614 34.3432V35.5806H69.1799C76.3327 35.5806 83.4855 35.5806 90.6383 35.5806C92.3458 35.5806 92.8107 36.0456 92.8107 37.7608C92.8107 56.6748 92.8107 75.5887 92.8107 94.5027V95.9131C94.3374 95.9131 95.8382 95.8873 97.3339 95.9209C98.5996 95.9493 99.3539 97.0471 98.8243 98.083C98.6461 98.4343 98.3 98.7003 98.0313 99.0052H0V96.8792V96.874ZM64.9047 95.8615V3.16697H9.35624V95.8563H21.5953V81.9769C21.0218 81.9769 20.5078 82.0157 20.0015 81.9692C19.149 81.8917 18.5627 81.2304 18.5704 80.427C18.5782 79.6211 19.1697 78.9933 20.0273 78.9081C20.3141 78.8797 20.6059 78.8952 20.8978 78.8952C29.2751 78.8952 37.6523 78.8952 46.0269 78.8952C48.6695 78.8952 51.3095 78.8848 53.9521 78.9004C55.0112 78.9055 55.6828 79.5384 55.6802 80.4477C55.6751 81.3544 55.0009 81.9562 53.9392 81.9872C53.5052 82.0002 53.0712 81.9872 52.6424 81.9872V95.864H64.9047V95.8615ZM89.6541 95.8615V38.7476H68.113V95.8615H89.6541ZM49.4574 82.0363H38.7321V95.8356H49.4574V82.0363ZM24.8139 82.0312V95.833H35.5289V82.0312H24.8139Z" fill="#EC1E24"/>
<path d="M27.844 15.3931C27.844 16.8423 27.8517 18.294 27.844 19.7432C27.8362 21.0813 27.2912 21.647 25.9867 21.6521C23.0858 21.6625 20.1875 21.665 17.2866 21.6521C16.0363 21.647 15.4784 21.0709 15.4758 19.7974C15.4654 16.8965 15.4629 13.9982 15.4758 11.0973C15.4809 9.84446 16.0544 9.28908 17.3305 9.2865C20.2314 9.27616 23.1297 9.27358 26.0306 9.2865C27.2834 9.29166 27.8337 9.86513 27.844 11.1412C27.8569 12.5594 27.8466 13.9775 27.8466 15.3957L27.844 15.3931ZM24.7132 12.4509H18.6117V18.5058H24.7132V12.4509Z" fill="#EC1E24"/>
<path d="M15.468 32.4937C15.468 31.0445 15.4577 29.5928 15.4706 28.1436C15.4809 26.8753 16.0363 26.307 17.2943 26.3018C20.1952 26.2889 23.0935 26.2915 25.9944 26.3018C27.2628 26.307 27.8337 26.8676 27.8388 28.1256C27.8517 31.0265 27.8517 33.9248 27.8388 36.8257C27.8337 38.094 27.2705 38.6649 26.0125 38.6701C23.1116 38.683 20.2133 38.6804 17.3124 38.6701C16.0441 38.6649 15.4809 38.1043 15.4706 36.8438C15.4577 35.3946 15.468 33.9429 15.468 32.4937ZM24.7029 29.4456H18.6247V35.5083H24.7029V29.4456Z" fill="#EC1E24"/>
<path d="M30.9386 32.4808C30.9386 31.0316 30.9283 29.5799 30.9412 28.1307C30.9541 26.8701 31.5121 26.307 32.7779 26.3018C35.6788 26.2915 38.5771 26.2915 41.478 26.3018C42.7386 26.307 43.3043 26.8727 43.3094 28.1385C43.3198 31.0394 43.3224 33.9377 43.3094 36.8386C43.3043 38.0992 42.736 38.6649 41.4728 38.6701C38.5719 38.6804 35.6736 38.683 32.7727 38.6701C31.5121 38.6649 30.9541 38.0966 30.9438 36.8334C30.9309 35.3843 30.9412 33.9325 30.9412 32.4834L30.9386 32.4808ZM34.0746 35.5108H40.1425V29.4404H34.0746V35.5108Z" fill="#EC1E24"/>
<path d="M58.78 32.5815C58.78 33.9997 58.7904 35.4179 58.7775 36.836C58.7645 38.0966 58.204 38.6649 56.9408 38.6701C54.0399 38.6804 51.1416 38.683 48.2407 38.6701C46.9775 38.6649 46.4144 38.0992 46.4092 36.836C46.3989 33.9351 46.3989 31.0368 46.4092 28.1359C46.4144 26.8727 46.9775 26.3096 48.2433 26.3044C51.1442 26.2941 54.0425 26.2941 56.9434 26.3044C58.2066 26.3096 58.7645 26.8753 58.7775 28.1385C58.7904 29.6212 58.78 31.104 58.78 32.5841V32.5815ZM55.6492 29.4636H49.5478V35.5238H55.6492V29.4636Z" fill="#EC1E24"/>
<path d="M43.312 15.5197C43.312 16.9688 43.3249 18.4206 43.3069 19.8697C43.2914 21.0709 42.7231 21.647 41.5193 21.6521C38.5874 21.665 35.6555 21.665 32.7236 21.6521C31.5224 21.647 30.949 21.0683 30.9438 19.8646C30.9309 16.9327 30.9309 14.0008 30.9438 11.0689C30.949 9.86771 31.525 9.29425 32.7314 9.28908C35.6633 9.27616 38.5951 9.27616 41.527 9.28908C42.7282 9.29425 43.2965 9.87029 43.3094 11.0766C43.3249 12.5594 43.3146 14.0421 43.3146 15.5223L43.312 15.5197ZM34.1004 12.4173V18.4852H40.1657V12.4173H34.1004Z" fill="#EC1E24"/>
<path d="M52.6528 9.28133C54.1019 9.28133 55.5537 9.26842 57.0028 9.2865C58.1988 9.302 58.7697 9.87288 58.7749 11.0818C58.7878 14.0137 58.7904 16.9456 58.7749 19.8775C58.7697 21.0735 58.1859 21.6444 56.9796 21.6521C54.0477 21.665 51.1158 21.6676 48.1839 21.6521C46.9879 21.647 46.417 21.0632 46.4118 19.8568C46.3989 16.9249 46.3989 13.993 46.4118 11.0611C46.417 9.86513 46.9982 9.302 48.2071 9.28908C49.6899 9.27358 51.1726 9.2865 52.6528 9.2865V9.28133ZM55.6441 12.4431H49.5762V18.511H55.6441V12.4431Z" fill="#EC1E24"/>
<path d="M27.844 49.5065C27.844 50.9556 27.8543 52.4074 27.8414 53.8565C27.8285 55.1145 27.2654 55.6802 25.9996 55.6854C23.0987 55.6957 20.2004 55.6983 17.2995 55.6854C16.0415 55.6802 15.4784 55.1119 15.4732 53.8436C15.4629 50.9427 15.4629 48.0444 15.4732 45.1435C15.4784 43.8829 16.0441 43.3223 17.3124 43.3172C20.2133 43.3068 23.1116 43.3068 26.0125 43.3172C27.2705 43.3223 27.8285 43.8906 27.8414 45.1564C27.8543 46.6056 27.844 48.0573 27.844 49.5065ZM24.708 46.4583H18.6221V52.5262H24.708V46.4583Z" fill="#EC1E24"/>
<path d="M37.0272 55.688C35.609 55.688 34.1908 55.6983 32.7727 55.6854C31.5095 55.6725 30.9438 55.1145 30.9386 53.8513C30.9283 50.9504 30.9283 48.0521 30.9386 45.1512C30.9438 43.8881 31.5069 43.3223 32.7701 43.3172C35.671 43.3068 38.5693 43.3068 41.4702 43.3172C42.7334 43.3223 43.2991 43.8881 43.3043 45.1486C43.3172 48.0495 43.3172 50.9479 43.3043 53.8488C43.2991 55.1119 42.7308 55.6725 41.4702 55.6854C39.9875 55.6983 38.5047 55.688 37.0246 55.688H37.0272ZM34.0772 52.5288H40.145V46.4557H34.0772V52.5288Z" fill="#EC1E24"/>
<path d="M52.6398 43.3146C54.089 43.3146 55.5407 43.3017 56.9899 43.3172C58.1937 43.3301 58.7697 43.8984 58.7774 45.0996C58.7929 48.0315 58.7904 50.9634 58.7774 53.8953C58.7723 55.099 58.1962 55.6751 56.9951 55.6828C54.0632 55.6957 51.1313 55.6957 48.1994 55.6828C46.9956 55.6776 46.4196 55.1016 46.4144 53.9004C46.4015 50.9685 46.4015 48.0366 46.4144 45.1047C46.4196 43.901 46.993 43.3327 48.1968 43.3198C49.6795 43.3043 51.1623 43.3146 52.6424 43.3146H52.6398ZM55.6208 52.5494V46.4816H49.5478V52.5494H55.6208Z" fill="#EC1E24"/>
<path d="M52.6657 60.3299C54.0838 60.3299 55.502 60.3222 56.9202 60.3325C58.1962 60.3429 58.7723 60.8931 58.7775 62.1433C58.7904 65.0442 58.7904 67.9425 58.7775 70.8434C58.7723 72.1505 58.2066 72.6982 56.8685 72.7033C54.0012 72.7111 51.1339 72.7137 48.2665 72.7033C46.9905 72.6982 46.417 72.1428 46.4118 70.8925C46.3989 67.9916 46.4015 65.0933 46.4118 62.1924C46.417 60.8853 46.9801 60.3429 48.3182 60.3351C49.7674 60.3248 51.2191 60.3351 52.6683 60.3351L52.6657 60.3299ZM49.5581 63.4401V69.5415H55.6105V63.4401H49.5581Z" fill="#EC1E24"/>
<path d="M37.1202 72.7033C35.671 72.7033 34.2193 72.7137 32.7701 72.7007C31.5095 72.6878 30.9464 72.1273 30.9412 70.8615C30.9309 67.9606 30.9309 65.0623 30.9412 62.1614C30.9464 60.9008 31.5121 60.3377 32.7779 60.3325C35.6788 60.3222 38.5771 60.3222 41.478 60.3325C42.7386 60.3377 43.3043 60.9034 43.3094 62.1692C43.3198 65.0701 43.3224 67.9684 43.3094 70.8693C43.3043 72.1299 42.736 72.6878 41.4728 72.7007C40.0236 72.7137 38.5719 72.7033 37.1227 72.7033H37.1202ZM40.1761 63.4917H34.1082V69.5596H40.1761V63.4917Z" fill="#EC1E24"/>
<path d="M21.5979 72.7033C20.1487 72.7033 18.697 72.7162 17.2478 72.6982C16.0492 72.6827 15.4784 72.1118 15.4732 70.9029C15.4603 67.971 15.4603 65.0391 15.4732 62.1072C15.4784 60.9086 16.057 60.3377 17.2659 60.3325C20.1978 60.3196 23.1297 60.3196 26.0616 60.3325C27.2602 60.3377 27.8311 60.9163 27.8388 62.1252C27.8517 65.0571 27.8543 67.989 27.8388 70.9209C27.8337 72.1195 27.2524 72.6852 26.0461 72.6982C24.5634 72.7137 23.0806 72.7007 21.6005 72.7007L21.5979 72.7033ZM18.6169 63.4685V69.5467H24.6796V63.4685H18.6169Z" fill="#EC1E24"/>
<path d="M78.8926 43.3146C80.3418 43.3146 81.7935 43.3043 83.2427 43.3172C84.5032 43.3301 85.069 43.8906 85.0741 45.1538C85.0845 48.0547 85.087 50.953 85.0741 53.8539C85.069 55.1145 84.5007 55.6802 83.2375 55.6854C80.3366 55.6957 77.4383 55.6983 74.5374 55.6854C73.2768 55.6802 72.7137 55.1119 72.7085 53.8488C72.6982 50.9479 72.6982 48.0496 72.7085 45.1487C72.7137 43.8855 73.2794 43.3301 74.5451 43.3198C75.9943 43.3069 77.446 43.3172 78.8952 43.3172L78.8926 43.3146ZM81.9123 52.5546V46.4532H75.8496V52.5546H81.9123Z" fill="#EC1E24"/>
<path d="M78.921 89.7187C77.4719 89.7187 76.0201 89.7264 74.571 89.7161C73.2897 89.7057 72.7137 89.1581 72.7085 87.9104C72.6956 84.9785 72.6956 82.0466 72.7085 79.1147C72.7137 77.9213 73.2975 77.353 74.509 77.3479C77.4409 77.3349 80.3728 77.3349 83.3047 77.3479C84.4981 77.353 85.0664 77.9368 85.0715 79.1483C85.0845 82.0802 85.087 85.0121 85.0715 87.944C85.0664 89.1375 84.48 89.7006 83.2685 89.7135C81.8193 89.729 80.3676 89.7161 78.9184 89.7161L78.921 89.7187ZM81.933 86.5827V80.4993H75.8677V86.5827H81.933Z" fill="#EC1E24"/>
<path d="M78.8564 72.7033C77.4073 72.7033 75.9555 72.7162 74.5064 72.7007C73.2949 72.6878 72.7137 72.1247 72.7085 70.9313C72.693 67.9994 72.6956 65.0675 72.7085 62.1356C72.7137 60.9241 73.282 60.3429 74.478 60.3377C77.4099 60.3222 80.3418 60.3248 83.2737 60.3377C84.4826 60.3429 85.0664 60.9112 85.0741 62.1072C85.0896 65.0391 85.0896 67.971 85.0741 70.9029C85.069 72.1454 84.4878 72.6956 83.2065 72.7059C81.7573 72.7162 80.3056 72.7085 78.8564 72.7059V72.7033ZM81.9201 69.5648V63.4969H75.8471V69.5648H81.9201Z" fill="#EC1E24"/>
<path d="M41.8112 91.2582C40.9742 91.2867 40.2561 90.6073 40.2251 89.7678C40.1967 88.9256 40.8632 88.2204 41.7156 88.192C42.5629 88.1636 43.2759 88.8301 43.3017 89.6748C43.3275 90.5117 42.6481 91.2298 41.8086 91.2582H41.8112Z" fill="#EC1E24"/>
<path d="M32.5066 88.192C33.3591 88.2049 34.0384 88.8998 34.0204 89.7445C34.0049 90.5866 33.2971 91.2712 32.4575 91.2582C31.618 91.2453 30.9309 90.5375 30.9438 89.698C30.9567 88.8481 31.649 88.1817 32.5066 88.192Z" fill="#EC1E24"/>
</g>
<defs>
<clipPath id="clip0_14_16">
<rect width="99" height="99" fill="white"/>
</clipPath>
</defs>
</svg>
