<svg width="100" height="100" viewBox="0 0 100 100" fill="none" xmlns="http://www.w3.org/2000/svg">
<g clip-path="url(#clip0_14_76)">
<path d="M65.7284 19.0301C58.5902 8.61548 48.9385 3.56234 36.5198 3.70005C39.3703 6.41221 41.7347 9.4896 43.5864 12.9172C45.441 16.3538 47.1077 19.8922 48.9236 23.5174C50.2266 23.1762 51.7174 22.7571 53.2202 22.3949C54.3264 22.1284 55.2299 22.6373 55.5102 23.6132C55.7904 24.5891 55.215 25.5321 54.0432 25.8584C50.8229 26.7565 47.5908 27.6126 44.3646 28.4838C42.182 29.0735 39.9964 29.6572 37.7065 30.2709C38.4817 33.2166 39.2301 36.0874 39.9904 38.9552C42.7425 49.3339 45.5125 59.7096 48.2289 70.0973C48.4853 71.0762 48.8878 71.3426 49.8867 71.3366C57.2902 71.2827 64.6908 71.2857 72.0943 71.3037C74.8584 71.3097 77.4584 71.9922 79.8497 73.4411C81.5672 74.4829 83.3174 75.4737 85.0408 76.5065C86.2156 77.213 86.5615 78.2667 85.9652 79.2127C85.3778 80.1467 84.4057 80.2964 83.2339 79.6108C82.4319 79.1409 81.594 78.7098 80.8575 78.15C77.3719 75.4917 73.3794 74.6535 69.1037 74.6894C59.9171 74.7702 50.7275 74.8211 41.5379 74.875C38.598 74.893 35.661 74.9079 32.7211 74.884C28.4602 74.8511 25.2191 72.9831 23.0843 69.2771C19.4585 62.9756 15.8626 56.6592 12.2667 50.3398C11.557 49.0945 10.6208 48.2293 9.12397 48.1635C6.37783 48.0377 4.47253 50.7738 5.78448 53.1926C8.34277 57.9105 11.0531 62.5445 13.7068 67.2115C14.3688 68.379 15.0665 69.5255 15.7165 70.702C16.3188 71.7917 16.0922 72.7915 15.1738 73.3273C14.2495 73.8662 13.2566 73.5788 12.6304 72.5011C9.29393 66.7206 5.93058 60.9579 2.67159 55.1355C0.7156 51.639 2.00071 47.3881 5.43264 45.4543C8.85264 43.5264 13.0628 44.655 15.1112 48.1575C18.7608 54.402 22.3806 60.6646 25.9288 66.966C27.6194 69.9716 30.0405 71.4055 33.4814 71.3276C37.2354 71.2438 40.9923 71.3097 44.9579 71.3097C41.3799 57.9105 37.8287 44.6191 34.2507 31.2199C31.6298 31.9264 29.0953 32.6179 26.5579 33.2944C18.9874 35.3181 11.4169 37.3507 3.83743 39.3444C1.66974 39.9132 0.939227 39.2935 0.942209 37.0394C0.94519 31.8605 1.92915 26.8822 3.98652 22.1224C4.36519 21.2453 4.91382 20.6975 5.93654 20.8113C6.78334 20.9071 7.34987 21.392 7.47211 22.1973C7.54368 22.6733 7.38266 23.2271 7.19184 23.6881C5.74572 27.2025 4.81841 30.8307 4.61565 34.6355C4.60373 34.8511 4.61565 35.0696 4.61565 35.4228C10.2511 33.9141 15.797 32.4293 21.1909 30.9864C20.9673 26.975 20.6512 23.0744 20.5558 19.1708C20.4574 15.2372 20.9583 11.3546 22.0615 7.37315C20.4037 8.50471 18.7369 9.62431 17.0911 10.7738C16.5752 11.1361 16.125 11.5911 15.633 11.9922C14.6789 12.7735 13.6472 12.7646 12.9525 11.9743C12.2518 11.178 12.3621 10.1153 13.2655 9.30699C17.4459 5.57701 22.1987 2.80497 27.6075 1.41895C42.0061 -2.27211 54.4606 1.27526 64.7117 12.094C66.6855 14.1775 68.1704 16.749 69.7716 19.1648C70.6005 20.4161 70.0936 21.6016 68.6296 22.0237C66.1697 22.7331 63.6889 23.3857 61.1992 23.9874C59.9201 24.2958 59.0107 23.724 58.7751 22.6493C58.5574 21.6614 59.1806 20.8053 60.3822 20.476C62.0997 20.006 63.8201 19.554 65.7314 19.0421L65.7284 19.0301ZM45.2502 24.5263C42.4533 17.8596 39.5313 11.4713 34.0986 6.66068C33.4128 6.05299 32.5839 5.56803 31.752 5.17587C29.7573 4.22991 28.1084 4.63703 26.9127 6.50202C26.2001 7.61263 25.6187 8.86993 25.2549 10.1392C23.7074 15.5097 23.9102 20.9909 24.4409 26.4781C24.5542 27.6456 24.7361 28.8071 24.8941 30.0584C31.7133 28.2054 38.3714 26.3972 45.2502 24.5263Z" fill="#EC1E24"/>
<path d="M28.5378 96.4107V85.4154C27.9325 85.2717 27.3272 85.137 26.7249 84.9873C23.0246 84.0593 19.8491 82.2122 17.2044 79.4582C16.2234 78.4374 16.1369 77.3836 16.93 76.6023C17.7411 75.803 18.728 75.9138 19.7597 76.9316C22.7861 79.9102 26.2717 81.856 30.6309 81.8919C37.9212 81.9518 45.2084 82.0536 52.4987 82.0805C59.0822 82.1045 65.6658 82.0386 72.2494 82.0596C72.8815 82.0596 73.5733 82.3021 74.1338 82.6194C79.0447 85.4213 83.9317 88.2622 88.8246 91.0941C89.5343 91.5043 90.226 91.9443 90.9476 92.3275C92.8022 93.3154 94.8864 92.7316 95.8674 90.9744C96.8245 89.2591 96.2729 87.1816 94.5256 86.1129C93.0974 85.2417 91.6214 84.4484 90.1783 83.6013C88.9677 82.8918 88.601 81.8949 89.1675 80.928C89.734 79.9581 90.7329 79.7964 91.9882 80.4939C93.3538 81.2543 94.7075 82.0296 96.0671 82.799C98.8699 84.3856 100.301 86.7924 99.9553 90.0105C99.6213 93.1268 97.7876 95.1594 94.8238 96.1443C94.7284 96.1772 94.6359 96.2191 94.5435 96.4077C95.6288 96.4077 96.7142 96.4017 97.7995 96.4077C99.192 96.4197 100.015 97.1052 100 98.2248C99.9821 99.3354 99.1651 99.991 97.7488 99.991C82.2738 99.994 66.8018 99.991 51.3269 99.991C35.2197 99.991 19.1126 99.991 3.00853 99.991C2.74912 99.991 2.48673 99.991 2.22732 99.991C0.814002 99.982 0 99.3175 0 98.2009C0 97.0813 0.816984 96.4167 2.22732 96.4137C10.5224 96.4107 18.8175 96.4137 27.1125 96.4137C27.5508 96.4137 27.9921 96.4137 28.5378 96.4137V96.4107ZM51.6429 96.3718C50.6768 92.7586 49.7316 89.2172 48.7984 85.7297H39.3732V96.3718H51.6429ZM62.4456 85.6997H52.4987C53.4916 89.307 54.4636 92.8454 55.4297 96.3598H62.4456V85.6997ZM73.293 86.2895V96.3718H90.7806C85.0557 93.0729 79.2206 89.7081 73.293 86.2895ZM35.6312 96.3598V85.7417H32.1963V96.3598H35.6312ZM69.5957 85.7117H66.1369V96.3329H69.5957V85.7117Z" fill="#EC1E24"/>
<path d="M9.2313 18.1949C8.24735 18.1739 7.5049 17.3926 7.51981 16.3958C7.5377 15.336 8.64987 14.1835 9.64278 14.1985C10.5462 14.2104 11.3811 15.1055 11.3662 16.0395C11.3483 17.1052 10.2451 18.2188 9.2313 18.1979V18.1949Z" fill="#EC1E24"/>
</g>
<defs>
<clipPath id="clip0_14_76">
<rect width="100" height="100" fill="white"/>
</clipPath>
</defs>
</svg>
