<svg width="95" height="95" viewBox="0 0 95 95" fill="none" xmlns="http://www.w3.org/2000/svg">
<g clip-path="url(#clip0_14_9)">
<path d="M87.3618 48.9789V85.7943C89.249 85.7943 91.0902 85.7917 92.9314 85.7943C94.4836 85.7968 94.9721 86.2936 94.9746 87.871C94.9772 89.5636 94.9797 91.2588 94.9746 92.9515C94.9695 94.5058 94.4734 94.9975 92.9007 94.9975C71.3026 94.9975 49.7019 94.9975 28.1038 94.9975C19.4579 94.9975 10.812 94.9975 2.16614 94.9975C0.473268 94.9975 0.0155295 94.5365 0.0155295 92.8388C0.0155295 91.1129 0.00785791 89.3869 0.0155295 87.6636C0.0232011 86.3474 0.565328 85.8071 1.87973 85.7994C3.75927 85.7891 5.64137 85.7968 7.59507 85.7968V48.9814C5.84083 48.9814 4.06613 48.9814 2.294 48.9814C0.41701 48.9814 0.0129723 48.5691 0.0129723 46.664C0.0129723 45.0661 0.0129723 43.4682 0.0129723 41.8703C0.0155295 40.2494 0.486054 39.7884 2.13289 39.7756C2.41418 39.7756 2.69548 39.7756 3.0228 39.7756V16.765C2.58296 16.765 2.12011 16.7804 1.65981 16.7625C0.634372 16.719 0.0385443 16.1658 0.0232011 15.1569C-0.00492809 13.1775 -0.00237089 11.1955 0.0232011 9.21349C0.0359871 8.14823 0.629258 7.58488 1.71607 7.56951C3.21459 7.54903 4.71566 7.56439 6.21418 7.56439C21.0817 7.56439 35.9493 7.56439 50.8169 7.56439C51.1953 7.56439 51.5764 7.56439 52.0904 7.56439C52.0904 5.8692 52.1978 4.21241 52.0648 2.57612C51.8679 0.128071 53.0698 -0.673433 55.3994 0.599243C68.014 7.49525 80.6824 14.2914 93.3559 21.0773C94.5603 21.7226 95.0155 22.4959 95.0053 23.8633C94.949 31.4994 94.9772 39.1355 94.9772 46.7715C94.9772 48.5307 94.5297 48.9763 92.7754 48.9789C90.9956 48.9789 89.2132 48.9789 87.3644 48.9789H87.3618ZM53.6196 85.7482V84.5446C53.6196 75.9816 53.6196 67.416 53.6196 58.853C53.6196 57.0912 54.062 56.6508 55.8213 56.6508C63.5441 56.6508 71.2643 56.6508 78.987 56.6508C80.7438 56.6508 81.1887 57.0963 81.1887 58.8555C81.1887 67.4519 81.1887 76.0482 81.1887 84.6445V85.7482H84.1935V49.0506H10.7788V85.7507H53.617L53.6196 85.7482ZM55.2178 4.04085V45.8394H91.9111C91.9111 45.4809 91.9111 45.1941 91.9111 44.9099C91.9111 38.2034 91.8957 31.4943 91.9315 24.7878C91.9367 24.0272 91.6733 23.6662 91.0365 23.3256C80.708 17.7765 70.3897 12.2044 60.0688 6.63997C58.4808 5.78469 56.8877 4.9371 55.2153 4.04341L55.2178 4.04085ZM52.0188 39.727V16.7676C47.9042 16.7676 43.8562 16.7804 39.8081 16.7548C39.1816 16.7497 38.7494 16.9417 38.3122 17.3822C33.5686 22.163 28.8045 26.9234 24.043 31.6889C23.8077 31.9245 23.5571 32.1473 23.3858 32.306C22.6084 31.5762 21.918 30.9258 21.0178 30.0833C25.4725 25.6251 29.8862 21.2028 34.3153 16.7702C33.1057 16.7702 31.8936 16.8086 30.684 16.7548C30.0217 16.7266 29.564 16.9392 29.0986 17.4052C21.941 24.6008 14.7629 31.7811 7.59251 38.9664C7.37771 39.1815 7.18081 39.412 6.88673 39.7295H52.0213L52.0188 39.727ZM91.8676 88.9311H3.11997V91.8811H91.8676V88.9311ZM65.8046 85.7507V59.7953H56.7291V85.7507H65.8046ZM78.0562 85.7533V59.7979H68.9858V85.7533H78.0562ZM6.21674 16.8188V35.7067C12.487 29.4278 18.7905 23.1156 25.0761 16.8188H6.21674ZM52.0392 10.6936H3.1481V13.6512H52.0392V10.6936ZM3.11997 45.8497H52.0111V42.892H3.11997V45.8497Z" fill="#EC1E24"/>
<path d="M32.2386 52.0491C37.1536 52.0491 42.066 52.0491 46.9809 52.0491C48.5331 52.0491 49.0215 52.5485 49.0215 54.1259C49.0215 62.9782 49.0215 71.8306 49.0215 80.6805C49.0215 82.2323 48.5203 82.7239 46.9451 82.7265C37.0845 82.7265 27.2265 82.7265 17.366 82.7265C15.8163 82.7265 15.3253 82.2271 15.3253 80.6472C15.3253 71.7948 15.3253 62.9424 15.3253 54.0926C15.3253 52.5356 15.8214 52.0491 17.3992 52.0491C22.3448 52.0491 27.2905 52.0491 32.2361 52.0491H32.2386ZM30.6071 55.1911H18.4374V79.6024H30.6071V55.1911ZM45.9171 55.1834H33.7806V79.6075H45.9171V55.1834Z" fill="#EC1E24"/>
<path d="M73.4351 41.3095C69.0316 41.3095 64.6281 41.3095 60.2246 41.3095C58.7236 41.3095 58.2172 40.7999 58.2147 39.2967C58.2096 35.5248 58.2096 31.7554 58.2147 27.9835C58.2147 26.4778 58.721 25.9708 60.2221 25.9708C69.093 25.9682 77.9639 25.9682 86.8323 25.9708C88.3334 25.9708 88.8423 26.4804 88.8448 27.9809C88.8499 31.7529 88.8499 35.5223 88.8448 39.2942C88.8448 40.7973 88.3334 41.3069 86.8349 41.3069C82.3674 41.3095 77.9 41.3069 73.4326 41.3069L73.4351 41.3095ZM61.3191 38.1752H71.9213V29.0923H61.3191V38.1752ZM75.0999 38.17H85.7353V29.0923H75.0999V38.17Z" fill="#EC1E24"/>
<path d="M18.6522 36.9358C17.9797 36.2572 17.3122 35.5837 16.6832 34.9487C17.4145 34.1958 18.1331 33.4558 18.8824 32.6824C19.5268 33.338 20.207 34.0294 20.9179 34.7515C20.184 35.4582 19.4552 36.1573 18.6497 36.9332L18.6522 36.9358Z" fill="#EC1E24"/>
<path d="M61.3191 73.4721V70.5247H64.2803V73.4721H61.3191Z" fill="#EC1E24"/>
<path d="M70.5097 73.4721V70.5247H73.4709V73.4721H70.5097Z" fill="#EC1E24"/>
</g>
<defs>
<clipPath id="clip0_14_9">
<rect width="95" height="95" fill="white"/>
</clipPath>
</defs>
</svg>
