<svg width="110" height="111" viewBox="0 0 110 111" fill="none" xmlns="http://www.w3.org/2000/svg">
<g clip-path="url(#clip0_14_35)">
<path d="M63.0058 0C64.0669 0.578224 64.2501 1.54465 64.2474 2.65223C64.2339 11.141 64.2393 19.627 64.2393 28.1158V29.5329C64.7187 29.5573 65.1307 29.5953 65.5401 29.5953C73.9242 29.598 82.3109 29.5953 90.695 29.6007C91.1582 29.6007 91.6268 29.617 92.0874 29.674C92.9492 29.7826 93.4259 30.3201 93.5256 31.1698C93.5794 31.634 93.5633 32.1064 93.5633 32.576C93.5633 52.5858 93.566 72.5956 93.5552 92.6054C93.5552 93.2977 93.6602 93.7564 94.3578 94.1664C98.8043 96.7724 100.929 100.73 100.878 105.899C100.873 106.323 100.878 106.746 100.878 107.281C103.259 107.281 105.581 107.246 107.897 107.305C108.465 107.319 109.206 107.479 109.537 107.865C109.895 108.28 110.094 109.102 109.944 109.624C109.795 110.134 109.171 110.577 108.659 110.878C108.33 111.071 107.821 110.973 107.393 110.973C72.4914 110.976 37.587 110.973 2.68528 110.986C1.54335 110.986 0.53069 110.87 -0.00257111 109.675V108.592C0.463359 107.577 1.26864 107.227 2.34863 107.273C3.56328 107.324 4.78332 107.284 6.00335 107.284C7.63815 107.284 9.27295 107.284 10.9885 107.284C10.9885 106.648 10.9885 106.149 10.9885 105.649C10.9885 71.3441 10.9885 37.0416 10.9778 2.73638C10.9778 1.58537 11.1313 0.583653 12.2544 0H63.0031L63.0058 0ZM14.7241 107.229C14.9853 107.251 15.1631 107.256 15.3354 107.284C16.2404 107.425 16.7278 107.202 16.9191 106.135C17.1103 105.058 17.6866 104.053 18.0556 103.003C18.2037 102.579 18.3115 102.123 18.333 101.678C18.3976 100.31 18.3384 98.9333 18.4704 97.5732C18.5646 96.6014 19.3053 96.2023 20.2452 96.2186C21.1448 96.2349 21.7238 96.6774 21.9366 97.576C21.9985 97.8366 22.0605 98.0972 22.0712 98.1433C23.8272 97.5624 25.5213 97.0276 27.1911 96.4304C27.4496 96.3381 27.6974 96.0042 27.8078 95.7273C28.3222 94.427 28.7989 93.1103 29.2568 91.7883C29.3699 91.4653 29.3915 91.0988 29.3941 90.7513C29.413 89.4157 29.3699 88.0801 29.4211 86.7472C29.4615 85.7237 30.0755 85.1699 31.0801 85.1292C32.047 85.0885 32.7418 85.4821 32.9465 86.5219C33.0004 86.7906 33.0812 87.0539 33.1593 87.3553C38.9417 83.8208 44.3362 84.5103 49.5315 88.8402V87.3363C49.5315 68.9905 49.5315 50.6421 49.5315 32.2964C49.5315 30.1029 50.0244 29.598 52.1628 29.5926C54.5625 29.5872 56.9648 29.5926 59.3645 29.5871C59.7416 29.5871 60.1213 29.5491 60.4903 29.5274V3.75167H14.7241V107.229ZM89.8385 92.3231V33.3904H53.3074V91.9077C53.4744 91.886 53.5525 91.8942 53.6145 91.867C57.7351 89.9043 61.6511 90.2789 65.4108 92.8443C65.6963 93.0398 66.2188 93.0425 66.577 92.9393C70.2021 91.9159 73.5013 92.5376 76.4531 94.8939C77.1992 95.4911 77.8698 96.1806 78.675 96.919C79.0063 96.5362 79.3349 96.1969 79.615 95.8223C80.0244 95.2766 80.5872 94.7581 80.7515 94.1392C81.134 92.6977 82.2705 92.0951 83.5956 92.79C83.8568 92.9257 84.1827 93.0615 84.4601 93.0289C86.2242 92.8253 87.9802 92.5728 89.8412 92.3231H89.8385ZM20.4849 107.205H59.3295C57.956 102.642 59.079 98.7514 62.214 95.3988C60.5091 94.2777 58.4811 94.0849 56.5797 94.6794C54.891 95.2061 53.7195 96.3897 52.521 97.5868C51.4248 98.6808 50.019 98.3497 49.4561 96.8919C49.2756 96.425 49.2002 95.9173 49.0683 95.4314C48.4057 92.9692 46.9541 91.1232 44.7348 89.9179C39.141 86.8775 31.748 90.2681 31.2175 97.5271C31.0774 99.46 30.6788 99.7857 28.7639 99.9079C24.7187 100.166 21.1771 103.271 20.4876 107.205H20.4849ZM96.9945 107.284C98.0206 103.149 95.5724 98.5017 91.6511 96.8946C87.4523 95.1762 82.6207 96.691 80.4337 100.41C80.2317 100.752 80.0513 101.108 79.8143 101.423C78.9228 102.617 77.4658 102.528 76.744 101.241C76.5501 100.896 76.3966 100.53 76.2107 100.179C73.5848 95.2386 66.9864 95.5291 64.1746 98.8926C62.3675 101.053 62.152 103.584 63.1755 106.228C63.469 106.985 63.838 107.313 64.7321 107.311C75.1227 107.267 85.5159 107.284 95.9064 107.284H96.9972H96.9945Z" fill="#EC1E24"/>
<path d="M51.4032 11.0514C51.4032 10.4053 51.3601 9.7538 51.4139 9.11042C51.4974 8.08699 52.1896 7.44362 53.1538 7.40833C54.1449 7.37032 54.9556 8.03813 55.0121 9.09685C55.0821 10.4243 55.0848 11.7599 55.0121 13.0874C54.9529 14.1841 54.2176 14.7868 53.1673 14.7651C52.1304 14.7434 51.4732 14.1108 51.4032 12.9978C51.3628 12.3517 51.3951 11.7029 51.3951 11.0568H51.4032V11.0514Z" fill="#EC1E24"/>
<path d="M40.4148 55.3873C40.4148 54.7413 40.3717 54.0897 40.4228 53.4464C40.5036 52.4636 41.1446 51.8447 42.0926 51.8203C43.0622 51.7958 43.8567 52.2139 43.9348 53.2292C44.0479 54.725 44.0479 56.2425 43.9348 57.741C43.8594 58.7508 43.0784 59.1852 42.1007 59.1607C41.15 59.1363 40.5009 58.5309 40.4228 57.5455C40.3663 56.8315 40.4121 56.1067 40.4121 55.3901L40.4148 55.3873Z" fill="#EC1E24"/>
<path d="M21.9607 44.4581C21.9607 45.1395 22.0145 45.829 21.9472 46.5049C21.8529 47.4714 21.1635 48.0957 20.2262 48.0713C19.3294 48.0469 18.5295 47.6777 18.4702 46.6868C18.376 45.153 18.3652 43.603 18.4783 42.0719C18.5483 41.1055 19.3186 40.7064 20.2505 40.7336C21.1904 40.7607 21.8314 41.2276 21.9337 42.1968C22.0118 42.9433 21.9499 43.7034 21.9499 44.4581C21.9526 44.4581 21.958 44.4581 21.9607 44.4581Z" fill="#EC1E24"/>
<path d="M40.4094 33.2411C40.4094 32.595 40.3717 31.9435 40.4175 31.3001C40.4902 30.293 41.0908 29.712 42.0442 29.6442C43.0945 29.5709 43.8675 30.0459 43.951 31.0856C44.0668 32.5461 44.0668 34.0311 43.951 35.4916C43.8729 36.5068 43.0353 37.0552 42.0496 36.9493C41.0719 36.8435 40.4713 36.3087 40.4148 35.288C40.3771 34.6066 40.4067 33.9225 40.4067 33.2384L40.4094 33.2411Z" fill="#EC1E24"/>
<path d="M21.9499 66.6125C21.9499 67.3319 22.0092 68.0567 21.9364 68.7652C21.8368 69.7344 21.2039 70.2067 20.2639 70.2393C19.3348 70.2719 18.551 69.8782 18.4837 68.9145C18.3733 67.3482 18.3814 65.7601 18.4945 64.1937C18.5618 63.268 19.3698 62.8961 20.2155 62.9124C21.115 62.9287 21.826 63.363 21.9311 64.3512C22.0092 65.0977 21.9472 65.8578 21.9472 66.6125C21.9472 66.6125 21.9499 66.6125 21.9526 66.6125H21.9499Z" fill="#EC1E24"/>
<path d="M40.4094 22.1354C40.4094 21.4893 40.3797 20.8405 40.4175 20.1944C40.474 19.1737 41.0773 18.6389 42.0522 18.5357C43.0353 18.4299 43.8729 18.9809 43.9537 19.9962C44.0668 21.4567 44.0695 22.9416 43.9537 24.4021C43.8702 25.4419 43.0972 25.9142 42.0469 25.8409C41.0935 25.773 40.4929 25.1921 40.4228 24.185C40.3771 23.5063 40.4148 22.8195 40.4148 22.1354H40.4094Z" fill="#EC1E24"/>
<path d="M40.4148 77.6775C40.4148 76.9934 40.3717 76.3093 40.4255 75.6306C40.5036 74.6533 41.1527 74.0371 42.1034 74.0208C43.0622 74.0045 43.8675 74.4063 43.9402 75.4324C44.0452 76.9309 44.0479 78.4457 43.9402 79.9415C43.8648 80.9649 43.0757 81.364 42.098 81.3314C41.1365 81.2988 40.5036 80.7152 40.4255 79.727C40.3717 79.0484 40.4148 78.3616 40.4148 77.6802V77.6775Z" fill="#EC1E24"/>
<path d="M21.958 11.1627C21.958 11.8441 22.0038 12.5309 21.9472 13.2096C21.8664 14.176 21.2793 14.6918 20.3313 14.7488C19.3563 14.8085 18.5483 14.4149 18.4729 13.3915C18.3571 11.8604 18.3706 10.3103 18.4729 8.77652C18.5403 7.78838 19.3536 7.40018 20.2478 7.42461C21.1473 7.45176 21.8422 7.91054 21.9338 8.89868C22.0011 9.64792 21.9472 10.4053 21.9472 11.16C21.9499 11.16 21.9526 11.16 21.958 11.16V11.1627Z" fill="#EC1E24"/>
<path d="M29.3348 44.3278C29.3698 43.6084 29.3563 42.8863 29.4506 42.1751C29.5772 41.2086 30.2128 40.7499 31.1527 40.7309C32.0819 40.7146 32.8441 41.1191 32.9087 42.0882C33.0137 43.622 33.0084 45.1721 32.9087 46.7058C32.8441 47.6967 32.0253 48.0822 31.1365 48.0577C30.2397 48.0333 29.5529 47.58 29.4479 46.5864C29.3698 45.8371 29.3725 45.0798 29.3375 44.3251L29.3348 44.3278Z" fill="#EC1E24"/>
<path d="M40.4228 44.4201C40.4228 43.7007 40.369 42.9759 40.4363 42.2646C40.5279 41.3064 41.1258 40.7933 42.0738 40.739C42.9976 40.6847 43.819 41.0485 43.8944 42.0068C44.021 43.6057 44.0102 45.2291 43.8836 46.828C43.8109 47.7428 42.976 48.0985 42.1277 48.0605C41.2254 48.0224 40.544 47.5501 40.4417 46.5728C40.369 45.8616 40.4282 45.1368 40.4282 44.4174C40.4282 44.4174 40.4255 44.4174 40.4228 44.4174V44.4201Z" fill="#EC1E24"/>
<path d="M44.0937 11.1437C44.056 11.8685 44.083 12.5961 43.9645 13.2964C43.7867 14.3334 43.0811 14.8221 42.0496 14.7515C41.0988 14.6863 40.4659 14.1027 40.4255 13.0901C40.369 11.7627 40.369 10.427 40.4255 9.09956C40.4686 8.06527 41.1716 7.4029 42.1546 7.41375C43.1134 7.42461 43.8244 7.86982 43.9698 8.88782C44.0749 9.63164 44.0587 10.3917 44.0964 11.141L44.0937 11.1437Z" fill="#EC1E24"/>
<path d="M29.429 55.4986C29.429 54.7793 29.3698 54.0572 29.4425 53.3459C29.5422 52.3795 30.2397 51.7904 31.185 51.8176C32.1007 51.842 32.8575 52.241 32.9168 53.2237C33.0084 54.7222 33.0164 56.237 32.9168 57.7355C32.8548 58.6829 32.0442 59.2286 31.0961 59.1607C30.1724 59.0929 29.5395 58.6314 29.4371 57.6514C29.3644 56.9374 29.3644 56.218 29.3348 55.4986C29.3644 55.4986 29.3967 55.4986 29.4263 55.4986H29.429Z" fill="#EC1E24"/>
<path d="M55.0337 22.2005C55.0337 22.8466 55.0768 23.4982 55.0229 24.1415C54.9313 25.2545 54.258 25.8599 53.2077 25.8572C52.16 25.8545 51.457 25.2328 51.4113 24.1307C51.3574 22.8385 51.3574 21.5409 51.4113 20.2487C51.4597 19.1655 52.2031 18.5059 53.2184 18.5086C54.2311 18.5113 54.9367 19.1655 55.0229 20.2596C55.0741 20.9029 55.031 21.5517 55.031 22.2005H55.0337Z" fill="#EC1E24"/>
<path d="M29.4237 66.6233C29.4237 65.904 29.3644 65.1819 29.4371 64.4706C29.5368 63.4933 30.2208 62.9151 31.1554 62.8934C32.0765 62.8744 32.8683 63.4363 32.9302 64.3946C33.0245 65.8578 33.0191 67.3373 32.9249 68.8005C32.8602 69.8294 32.1061 70.2556 31.1258 70.242C30.1562 70.2311 29.5314 69.6801 29.429 68.6675C29.3617 67.9915 29.4156 67.3047 29.4156 66.6206C29.4156 66.6206 29.4156 66.6206 29.4183 66.6206L29.4237 66.6233Z" fill="#EC1E24"/>
<path d="M44.0102 66.6179C44.0102 67.2993 44.083 67.9915 43.9941 68.6621C43.8486 69.7669 43.1322 70.3071 42.0684 70.242C41.0773 70.1823 40.4552 69.5742 40.4148 68.491C40.3663 67.2341 40.369 65.9718 40.4121 64.7149C40.4498 63.5938 41.1123 62.9423 42.1357 62.8961C43.1161 62.8527 43.8863 63.496 44.0102 64.5711C44.0883 65.2443 44.0237 65.9338 44.0237 66.6179C44.0183 66.6179 44.0156 66.6179 44.0102 66.6179Z" fill="#EC1E24"/>
<path d="M29.3348 11.0623C29.3698 10.3429 29.3698 9.62349 29.4425 8.90954C29.5448 7.91597 30.2235 7.49519 31.1231 7.41647C32.0361 7.33503 32.8656 7.93226 32.9249 8.87424C33.0191 10.3727 33.0164 11.8875 32.9114 13.386C32.8441 14.3552 32.0953 14.7678 31.1635 14.7542C30.2262 14.7406 29.5799 14.29 29.4533 13.3209C29.3563 12.577 29.3698 11.8169 29.3348 11.0623Z" fill="#EC1E24"/>
<path d="M29.4263 33.3144C29.4263 32.5977 29.3779 31.8756 29.4371 31.1617C29.5179 30.1871 30.1293 29.7066 31.0692 29.6442C32.0738 29.579 32.8468 30.0568 32.9114 31.0178C33.0137 32.5516 33.011 34.1016 32.9006 35.6354C32.8279 36.6263 32.0011 36.9819 31.1096 36.952C30.2532 36.9249 29.5825 36.5041 29.4587 35.5703C29.3617 34.8265 29.3698 34.0663 29.3321 33.3144C29.3644 33.3144 29.394 33.3144 29.4263 33.3144Z" fill="#EC1E24"/>
<path d="M33.0838 77.6802C33.038 78.4349 33.0407 79.195 32.9302 79.9361C32.7767 80.9731 32.0496 81.364 31.0854 81.326C30.1481 81.2907 29.4883 80.8075 29.4425 79.8302C29.3779 78.3969 29.3671 76.9554 29.4479 75.5247C29.5017 74.5556 30.2424 73.9692 31.1931 74.01C32.0926 74.048 32.801 74.428 32.9302 75.4216C33.0272 76.1654 33.0353 76.9228 33.0811 77.6748L33.0838 77.6802Z" fill="#EC1E24"/>
<path d="M29.3348 22.2304C29.3698 21.4757 29.3617 20.7183 29.4506 19.9718C29.5664 18.9837 30.2559 18.5493 31.1608 18.5357C32.0576 18.5249 32.8521 18.9104 32.9114 19.9067C33.003 21.4404 33.011 22.9905 32.9006 24.5243C32.8306 25.5043 32.0388 25.8708 31.1204 25.8463C30.1858 25.8219 29.5529 25.3604 29.4398 24.3858C29.3563 23.6746 29.3644 22.9525 29.3321 22.2331L29.3348 22.2304Z" fill="#EC1E24"/>
<path d="M21.9553 55.5719C21.9553 56.2533 22.0011 56.9401 21.9445 57.6188C21.8637 58.5934 21.2416 59.0766 20.3124 59.158C19.3671 59.2394 18.5322 58.7101 18.4675 57.7681C18.3625 56.237 18.3625 54.6842 18.4783 53.1532C18.551 52.1786 19.3536 51.7904 20.2639 51.8257C21.1823 51.861 21.8476 52.3306 21.9337 53.3133C22.0011 54.0626 21.9472 54.82 21.9472 55.5746C21.9472 55.5746 21.9499 55.5746 21.9526 55.5746L21.9553 55.5719Z" fill="#EC1E24"/>
<path d="M21.9634 33.3252C21.9634 34.0066 22.0145 34.6962 21.9526 35.3721C21.861 36.3684 21.2254 36.9303 20.2612 36.9683C19.3105 37.0063 18.5268 36.4905 18.4595 35.516C18.3571 34.0202 18.3598 32.5027 18.4702 31.0069C18.5483 29.9699 19.359 29.598 20.3259 29.6496C21.2685 29.6985 21.8718 30.2007 21.9499 31.1725C22.0065 31.8865 21.9607 32.6086 21.9607 33.3252C21.9607 33.3252 21.9634 33.3252 21.9661 33.3252H21.9634Z" fill="#EC1E24"/>
<path d="M21.9553 77.6693C21.9553 78.3887 22.0038 79.1108 21.9445 79.8221C21.861 80.7939 21.2443 81.2853 20.3043 81.326C19.3375 81.3667 18.5376 80.9839 18.4649 79.9469C18.3598 78.4511 18.3571 76.9337 18.4649 75.4379C18.5322 74.4715 19.3321 73.9339 20.2828 74.0127C21.2497 74.0941 21.896 74.5827 21.9607 75.6198C22.0038 76.2984 21.9688 76.9852 21.9688 77.6666C21.9661 77.6666 21.9634 77.6666 21.958 77.6666L21.9553 77.6693Z" fill="#EC1E24"/>
<path d="M21.958 88.8592C21.958 89.5406 22.0011 90.2274 21.9472 90.906C21.8718 91.8887 21.2389 92.3557 20.3205 92.4425C19.3725 92.5348 18.5376 92.0109 18.4729 91.0635C18.3652 89.5324 18.3679 87.9796 18.481 86.4486C18.551 85.4686 19.3428 85.1048 20.2639 85.1292C21.2012 85.1564 21.8449 85.6206 21.9391 86.5951C22.0118 87.3417 21.9526 88.1018 21.9526 88.8565C21.9526 88.8565 21.958 88.8565 21.9607 88.8565L21.958 88.8592Z" fill="#EC1E24"/>
<path d="M21.9741 22.2494C21.9741 22.8955 22.0038 23.5443 21.9661 24.1904C21.9068 25.203 21.3466 25.7622 20.342 25.8409C19.2863 25.9223 18.5295 25.4419 18.4514 24.3967C18.341 22.9362 18.3625 21.4567 18.446 19.9935C18.5053 18.9511 19.2836 18.5412 20.2397 18.5303C21.1985 18.5195 21.8583 19.114 21.9472 20.0994C22.0119 20.8106 21.9607 21.5354 21.9607 22.2521C21.9661 22.2521 21.9688 22.2521 21.9741 22.2521V22.2494Z" fill="#EC1E24"/>
<path d="M84.4492 62.9721C84.4142 63.6535 84.4142 64.3376 84.3361 65.0135C84.2203 66.0343 83.5901 66.5365 82.599 66.5446C81.6133 66.5555 80.8942 66.0858 80.8349 65.0597C80.7514 63.6291 80.7622 62.1903 80.8214 60.7569C80.8645 59.7145 81.5944 59.2612 82.5505 59.2069C83.5174 59.1526 84.2257 59.777 84.3388 60.8167C84.4142 61.5252 84.3523 62.25 84.3523 62.9694C84.3846 62.9694 84.4142 62.9694 84.4465 62.9694L84.4492 62.9721Z" fill="#EC1E24"/>
<path d="M84.4492 51.861C84.4115 52.5369 84.4223 53.259 84.3226 53.9676C84.188 54.9286 83.477 55.5149 82.5451 55.4633C81.6375 55.4145 80.8968 55.0019 80.843 54.0137C80.7622 52.5478 80.7487 51.071 80.8403 49.6051C80.9022 48.6224 81.6375 48.0849 82.6071 48.1202C83.5928 48.1527 84.2311 48.6441 84.3388 49.6648C84.4142 50.3761 84.4142 51.0982 84.4519 51.8583L84.4492 51.861Z" fill="#EC1E24"/>
<path d="M84.4546 40.7553C84.4142 41.472 84.4035 42.1913 84.3227 42.9053C84.2095 43.9016 83.5174 44.3061 82.6232 44.3767C81.7048 44.4472 80.9022 43.8446 80.843 42.8944C80.7514 41.4285 80.7595 39.9517 80.843 38.4858C80.8969 37.514 81.589 37.0661 82.529 37.0389C83.5255 37.009 84.1422 37.5167 84.3334 38.4967C84.3604 38.6378 84.3981 38.779 84.4008 38.9229C84.4088 39.5337 84.4035 40.1445 84.4035 40.758C84.4223 40.758 84.4385 40.758 84.4573 40.758L84.4546 40.7553Z" fill="#EC1E24"/>
<path d="M84.4492 85.0641C84.4115 85.7916 84.4061 86.511 84.3334 87.2249C84.2257 88.2647 83.5524 88.7343 82.5828 88.737C81.6186 88.7397 80.8807 88.2837 80.8295 87.2412C80.7568 85.8106 80.7568 84.3718 80.8268 82.9412C80.8753 81.9042 81.5917 81.4373 82.5667 81.4346C83.5389 81.4319 84.2149 81.8879 84.3307 82.9249C84.4088 83.6362 84.4142 84.3583 84.4492 85.0668V85.0641Z" fill="#EC1E24"/>
<path d="M84.4546 74.0534C84.4088 74.7755 84.4196 75.5356 84.3038 76.2767C84.153 77.2513 83.4635 77.6449 82.537 77.634C81.6537 77.6232 80.9265 77.2241 80.8645 76.3093C80.7622 74.7755 80.7649 73.2254 80.8592 71.6889C80.9184 70.6981 81.721 70.3044 82.6124 70.318C83.5093 70.3343 84.2042 70.7686 84.32 71.7622C84.4061 72.5087 84.4115 73.2661 84.4546 74.0534Z" fill="#EC1E24"/>
<path d="M62.3485 62.9368C62.3485 63.6209 62.4024 64.3104 62.335 64.9864C62.2408 65.9338 61.6644 66.474 60.7137 66.5419C59.7307 66.6125 58.9173 66.1944 58.8311 65.1981C58.6992 63.6671 58.7072 62.1089 58.8257 60.5778C58.8985 59.6249 59.6876 59.2123 60.6033 59.2069C61.5351 59.2014 62.2138 59.8448 62.3458 60.7814C62.3566 60.852 62.362 60.9253 62.362 60.9958C62.362 61.6446 62.362 62.2907 62.362 62.9395C62.3566 62.9395 62.3512 62.9395 62.3458 62.9395L62.3485 62.9368Z" fill="#EC1E24"/>
<path d="M62.3539 51.9044C62.3539 52.5532 62.397 53.202 62.3431 53.8454C62.2623 54.8118 61.5944 55.4172 60.6545 55.4688C59.7361 55.5204 58.8769 54.972 58.8123 54.0382C58.7072 52.5397 58.6938 51.0167 58.8204 49.5209C58.9038 48.5274 59.6822 48.0822 60.6706 48.1202C61.6213 48.1582 62.2677 48.7581 62.3458 49.7436C62.4024 50.4575 62.3566 51.1823 62.3566 51.9017L62.3539 51.9044Z" fill="#EC1E24"/>
<path d="M73.3531 40.6684C73.3531 41.3525 73.3962 42.0393 73.3423 42.718C73.2588 43.7496 72.5694 44.4065 71.589 44.3767C70.6356 44.3441 69.868 43.9043 69.8142 42.87C69.7361 41.4041 69.728 39.9273 69.8303 38.4641C69.903 37.4434 70.6598 37.0172 71.6429 37.0389C72.6124 37.0606 73.2481 37.628 73.3342 38.6216C73.3935 39.3002 73.345 39.987 73.345 40.6684C73.345 40.6684 73.3477 40.6684 73.3504 40.6684H73.3531Z" fill="#EC1E24"/>
<path d="M73.3585 51.823C73.3585 52.4691 73.3989 53.1206 73.3504 53.764C73.2723 54.8173 72.6259 55.4308 71.6375 55.4715C70.711 55.5095 69.8977 54.9666 69.833 54.011C69.7307 52.5152 69.7307 50.9977 69.8492 49.5019C69.93 48.4812 70.7326 48.0713 71.7048 48.131C72.6421 48.188 73.2507 48.7011 73.3315 49.6703C73.3908 50.3842 73.3423 51.1063 73.3423 51.8257C73.3477 51.8257 73.3531 51.8257 73.3585 51.8257V51.823Z" fill="#EC1E24"/>
<path d="M62.362 74.01C62.362 74.656 62.3997 75.3076 62.3539 75.9509C62.2812 77.0015 61.6402 77.6042 60.6356 77.6367C59.6068 77.672 58.85 77.1481 58.7827 76.1084C58.6884 74.6778 58.6884 73.2308 58.7934 71.8029C58.8662 70.8066 59.7253 70.2094 60.6895 70.3126C61.6563 70.4157 62.2812 70.9397 62.3512 71.9604C62.397 72.639 62.3593 73.3259 62.3593 74.01C62.3593 74.01 62.362 74.01 62.3647 74.01H62.362Z" fill="#EC1E24"/>
<path d="M62.3593 40.7553C62.3593 41.4041 62.397 42.0529 62.3485 42.6963C62.2731 43.7061 61.5675 44.3549 60.5979 44.3821C59.6903 44.4092 58.8608 43.831 58.7961 42.8863C58.6965 41.4204 58.6884 39.9382 58.8015 38.4723C58.8796 37.4543 59.6795 36.9629 60.7218 37.0362C61.6698 37.1041 62.2785 37.6931 62.3485 38.703C62.397 39.3844 62.3566 40.0685 62.3566 40.7526L62.3593 40.7553Z" fill="#EC1E24"/>
<path d="M73.3396 62.8798C73.3396 63.5992 73.3935 64.3213 73.3261 65.0353C73.2346 66.0017 72.6178 66.4958 71.6779 66.5446C70.7514 66.5908 69.9488 66.2134 69.8707 65.2524C69.7468 63.6888 69.7495 62.1007 69.8653 60.5343C69.9381 59.5571 70.7676 59.177 71.6644 59.2204C72.5693 59.2666 73.24 59.7417 73.3235 60.7271C73.3854 61.441 73.3342 62.1631 73.3369 62.8825L73.3396 62.8798Z" fill="#EC1E24"/>
<path d="M73.3396 73.9937C73.3396 74.7131 73.3962 75.4352 73.3262 76.1491C73.2319 77.1182 72.6044 77.596 71.6644 77.634C70.7433 77.6693 69.9408 77.3083 69.868 76.3364C69.7522 74.7701 69.7549 73.1847 69.8734 71.6183C69.9488 70.6356 70.7918 70.28 71.6833 70.3261C72.5909 70.375 73.2507 70.8555 73.3315 71.8409C73.3881 72.5549 73.3423 73.277 73.3423 73.9964L73.3396 73.9937Z" fill="#EC1E24"/>
<path d="M62.3566 85.0804C62.3566 85.7645 62.3997 86.4486 62.3458 87.1272C62.265 88.1072 61.6213 88.7072 60.6625 88.737C59.6876 88.7669 58.8958 88.3488 58.8177 87.339C58.7019 85.8432 58.6992 84.323 58.8177 82.8245C58.8958 81.8173 59.6822 81.3966 60.6625 81.4291C61.6267 81.4617 62.2677 82.0481 62.3485 83.0308C62.4051 83.7095 62.3593 84.3963 62.3593 85.0776L62.3566 85.0804Z" fill="#EC1E24"/>
<path d="M73.3558 85.1374C73.3558 85.7835 73.3854 86.4323 73.3477 87.0783C73.2911 88.0963 72.7121 88.642 71.721 88.7343C70.7002 88.8293 69.9084 88.319 69.8276 87.2847C69.7145 85.8242 69.7145 84.342 69.8276 82.8815C69.9084 81.8445 70.6868 81.3477 71.7237 81.4373C72.7202 81.5241 73.2938 82.0752 73.3477 83.0905C73.3854 83.7719 73.3558 84.456 73.3531 85.1374H73.3558Z" fill="#EC1E24"/>
</g>
<defs>
<clipPath id="clip0_14_35">
<rect width="110" height="111" fill="white"/>
</clipPath>
</defs>
</svg>
